<?xml version="1.0" standalone="no"?>
<!DOCTYPE svg PUBLIC "-//W3C//DTD SVG 1.1//EN" "http://www.w3.org/Graphics/SVG/1.1/DTD/svg11.dtd" >
<svg xmlns="http://www.w3.org/2000/svg">
<metadata></metadata>
<defs>
<font id="oswaldlight" horiz-adv-x="816" >
<font-face units-per-em="2048" ascent="1638" descent="-410" />
<missing-glyph horiz-adv-x="418" />
<glyph horiz-adv-x="0" />
<glyph unicode="&#xd;" horiz-adv-x="682" />
<glyph unicode=" "  horiz-adv-x="418" />
<glyph unicode="&#x09;" horiz-adv-x="418" />
<glyph unicode="&#xa0;" horiz-adv-x="418" />
<glyph unicode="!" horiz-adv-x="412" d="M80 0l19 179h160l-19 -179h-160zM172 356l84 1302h160l-191 -1302h-53z" />
<glyph unicode="&#x22;" horiz-adv-x="729" d="M246 1174l50 484h144l-113 -484h-81zM529 1174l50 484h144l-113 -484h-81z" />
<glyph unicode="#" horiz-adv-x="953" d="M63 0l154 597h-115l12 111h132l76 290h-152l11 111h169l143 549h146l-142 -549h202l143 549h146l-143 -549h105l-12 -111h-120l-77 -290h141l-12 -111h-158l-154 -597h-147l155 597h-202l-155 -597h-146zM392 708h203l76 290h-202z" />
<glyph unicode="$" horiz-adv-x="954" d="M83 403v27l143 40q0 -66 5.5 -116.5t21 -99t41.5 -79.5t69.5 -50t102.5 -19q235 0 259 240q2 20 2 39q0 49 -15 94q-20 63 -54.5 110t-97.5 115l-264 282q-70 75 -98 156q-21 59 -21 128q0 24 3 50q18 163 122 255.5t267 100.5l18 172h65l-18 -173q164 -9 241 -109 q71 -92 71 -277q0 -16 -1 -34l-136 -34v25q0 149 -45 227q-48 80 -171 80h-12q-110 -3 -178 -57t-80 -163q-2 -17 -2 -33q0 -49 16 -90q21 -56 77 -118l263 -277q102 -108 155 -218q43 -87 43 -187q0 -26 -3 -53q-18 -167 -116.5 -263.5t-251.5 -111.5l-18 -161h-63l17 159 q-191 4 -277 122q-80 110 -80 301z" />
<glyph unicode="%" horiz-adv-x="1499" d="M154 1074q0 33 4 71l24 230q16 152 83.5 233t200.5 81q132 0 183 -79q39 -60 39 -161q0 -32 -4 -68l-25 -239q-33 -315 -284 -315q-221 0 -221 247zM291 1081q0 -53 13 -87q20 -52 83 -52q65 0 95.5 51.5t39.5 145.5l26 244q3 30 3 56q0 51 -13 85q-20 49 -85 49 t-94.5 -50t-38.5 -142l-26 -243q-3 -31 -3 -57zM377 0l701 1673h133l-700 -1673h-134zM898 236q0 33 4 71l24 230q17 152 84 233t200 81t184 -79q39 -60 39 -161q0 -32 -4 -68l-26 -240q-31 -315 -283 -315q-222 0 -222 248zM1035 245q0 -55 13 -91q20 -51 84 -51t94.5 52 t40.5 146l25 243q3 33 3 61q0 20 -1 37q-4 43 -28 68t-68 25q-65 0 -94.5 -49.5t-39.5 -142.5l-26 -243q-3 -30 -3 -55z" />
<glyph unicode="&#x26;" horiz-adv-x="1236" d="M107 305q0 25 3 52q13 127 88.5 243.5t228.5 250.5q-91 188 -114 253q-32 92 -32 177q0 23 2 45q17 164 121 257t266 93q155 0 240 -80q71 -67 71 -176q0 -19 -2 -40q-13 -129 -118.5 -261t-284.5 -280l266 -504q60 74 108.5 190.5t64.5 210.5h144q-12 -113 -80 -255.5 t-158 -240.5q72 -106 178 -106l-16 -148q-12 0 -38 2q-120 10 -223 154q-71 -72 -166 -117.5t-204 -45.5q-122 0 -204.5 51.5t-115.5 135.5q-25 64 -25 139zM259 319q0 -27 5 -53q7 -42 29 -79.5t66.5 -59.5t106.5 -22q142 0 280 135l-270 503q-195 -192 -215 -386 q-2 -19 -2 -38zM429 1280q0 -65 17 -131q25 -90 85 -223q278 251 300 457q1 13 1 25q0 62 -40 100q-47 44 -136 44q-99 0 -157 -63.5t-68 -160.5q-2 -24 -2 -48z" />
<glyph unicode="'" horiz-adv-x="586" d="M246 1174l50 484h144l-113 -484h-81z" />
<glyph unicode="(" horiz-adv-x="569" d="M147 158q0 55 5 132q8 107 14.5 179t19.5 197q15 144 25 225.5t29.5 203t39.5 190.5t54 152t75 126.5t99 74.5t130 33l-11 -105q-42 -4 -77.5 -31.5t-61 -70t-47 -109t-36 -135.5t-28 -162.5t-23 -177.5t-20.5 -193q-1 -14 -2 -21q-42 -394 -43 -542v-11q0 -270 94 -329 q24 -15 55 -18l-11 -104q-62 4 -110 25.5t-78.5 67t-51.5 92t-28.5 127.5t-10.5 144q-1 19 -1 40z" />
<glyph unicode=")" horiz-adv-x="526" d="M-19 -338l11 104q126 12 193 234q49 159 90 544q4 36 11 109q1 10 2 15q41 391 42 533v23q0 262 -89 322q-27 18 -59 21l11 104q50 -1 90.5 -15t70 -43t52 -61t35 -86t21 -99.5t9.5 -118.5q1 -37 1 -69.5t-1 -59.5q-1 -55 -8 -144t-13 -148.5t-16 -158.5 q-15 -143 -25 -224.5t-29.5 -201.5t-39.5 -189t-54 -151.5t-75 -126.5t-99.5 -76.5t-130.5 -36.5z" />
<glyph unicode="*" horiz-adv-x="762" d="M173 1388l48 96l234 -123l14 296h116l-50 -296l258 123l27 -96l-266 -102l154 -241l-98 -55l-128 260l-182 -260l-85 57l203 239z" />
<glyph unicode="+" horiz-adv-x="785" d="M87 795l12 113h284l33 321h115l-33 -321h289l-12 -113h-289l-34 -324h-115l34 324h-284z" />
<glyph unicode="," horiz-adv-x="370" d="M38 -173q56 30 82.5 70t33.5 103h-90l24 223h168l-22 -207q-10 -100 -49 -157.5t-123 -97.5z" />
<glyph unicode="-" horiz-adv-x="610" d="M106 609l12 118h437l-13 -118h-436z" />
<glyph unicode="." horiz-adv-x="372" d="M77 0l24 225h159l-24 -225h-159z" />
<glyph unicode="/" horiz-adv-x="705" d="M5 0l646 1658h132l-646 -1658h-132z" />
<glyph unicode="0" horiz-adv-x="1008" d="M107 362q0 50 6 107l75 720q52 487 447 487q351 0 351 -382q0 -49 -6 -105l-75 -720q-51 -490 -448 -490q-350 0 -350 383zM259 367q0 -267 211 -267q242 0 280 356l78 745q6 45 6 87q0 27 -2 53q-7 65 -27 113t-66.5 75.5t-115.5 27.5q-133 0 -198.5 -95t-82.5 -261 l-78 -745q-5 -48 -5 -89z" />
<glyph unicode="1" horiz-adv-x="875" d="M277 1350l13 121q74 19 161.5 68.5t144.5 118.5h121l-174 -1658h-150l153 1459q-38 -47 -269 -109z" />
<glyph unicode="2" horiz-adv-x="993" d="M56 0l11 110l518 685q6 8 41.5 54.5t43 57t35.5 50.5t36.5 57t28 54t27 63t16.5 62t13 72q3 31 3 58q0 95 -37 153q-48 75 -157 75q-74 0 -128 -26t-86.5 -75.5t-50 -108t-26.5 -136.5q-4 -12 -4 -38h-149l4 42q25 233 132.5 350t313.5 117q185 0 270 -110 q68 -88 68 -235q0 -36 -4 -76q-8 -73 -29.5 -138.5t-63 -134.5t-70 -109.5t-87.5 -117.5l-480 -628h576l-14 -127h-751z" />
<glyph unicode="3" horiz-adv-x="980" d="M110 310q0 35 4 73l4 40h146q0 -3 -2 -16.5t-2 -16.5q-3 -32 -3 -61q0 -97 34 -153q44 -73 163 -73q120 0 189 82t89 266q4 43 4 80q0 265 -215 272q-4 1 -41 1l15 141h39q135 2 200.5 76.5t82.5 240.5q4 35 4 67q0 91 -33 149q-44 76 -166 76q-125 0 -189 -69.5 t-81 -218.5q0 -10 -3 -28h-146l4 38q20 190 124 295t303 105q188 0 272 -112q67 -90 67 -232q0 -34 -4 -71q-17 -168 -91.5 -265.5t-185.5 -122.5q99 -29 156 -133q42 -77 42 -199q0 -42 -5 -88q-24 -222 -132.5 -348t-312.5 -126q-187 0 -266 107q-64 85 -64 224z" />
<glyph unicode="4" horiz-adv-x="1008" d="M109 482l16 157l575 1020h182l-109 -1036h189l-15 -141h-188l-51 -482h-151l51 482h-499zM278 623h345l87 833z" />
<glyph unicode="5" horiz-adv-x="991" d="M134 330q0 46 5 98h150q-6 -47 -6 -88q0 -25 2 -48q6 -60 26 -102.5t62 -65.5t106 -23q134 0 193.5 101t82.5 322q9 83 9 148q0 113 -26 172q-42 94 -167 94q-134 0 -230 -139h-126l90 859h646l-17 -140h-511l-68 -575q99 110 265 110q178 0 245 -131q48 -93 48 -246 q0 -62 -8 -134q-29 -279 -134 -420t-309 -141q-195 0 -270 112q-58 86 -58 237z" />
<glyph unicode="6" horiz-adv-x="1006" d="M136 377q0 57 7 122l69 662q54 515 437 515q186 0 268 -96q68 -80 68 -225q0 -30 -3 -63q-4 -16 -4 -33h-148q5 45 5 83q0 95 -31 143q-43 67 -163 67q-238 0 -275 -357l-33 -313q47 40 121.5 69t156.5 29q102 0 167.5 -29t101 -89.5t43.5 -153.5q3 -34 3 -73 q0 -68 -9 -150q-53 -506 -446 -506q-335 0 -335 398zM284 366q0 -111 32 -172q47 -89 168 -89q124 0 191 83t86 268q11 102 11 178q0 26 -1 48q-5 91 -53.5 136t-153.5 45q-66 0 -134.5 -30t-108.5 -65l-30 -287q-7 -63 -7 -115z" />
<glyph unicode="7" horiz-adv-x="887" d="M235 1538l12 120h654l-7 -73l-496 -1585h-146l485 1538h-502z" />
<glyph unicode="8" horiz-adv-x="993" d="M103 345q0 47 6 100q9 83 31 150t47.5 108.5t64 76.5t68 53t72.5 38q-185 79 -185 316q0 35 4 73q21 193 122 304.5t295 111.5q99 0 169 -31t107 -88.5t50 -132.5q7 -42 7 -90q0 -37 -4 -78q-31 -293 -262 -385q18 -10 31.5 -18t31.5 -20.5t31 -24.5t28 -28.5t25.5 -35 t21 -41.5t16.5 -50t10 -59q4 -28 4 -61v-8q-1 -38 -5 -80q-50 -466 -439 -466q-347 0 -347 366zM250 356q0 -111 38 -172q51 -84 175 -84q123 0 191.5 84.5t86.5 260.5q4 43 4 80q0 258 -208 275q-247 -20 -282 -355q-5 -48 -5 -89zM355 1189q0 -242 196 -251 q226 11 259 323q4 36 4 67q0 227 -198 227q-226 0 -257 -294q-4 -38 -4 -72z" />
<glyph unicode="9" horiz-adv-x="1006" d="M123 303q0 31 3 65q0 1 1.5 14.5t1.5 14.5h148q-5 -44 -5 -81q0 -97 32 -146q45 -66 175 -66q111 0 176 82t86 276l33 312q-41 -41 -112 -69t-166 -28q-200 0 -267 115q-47 81 -47 236q0 65 8 143q53 505 448 505q333 0 333 -396q0 -58 -7 -123l-69 -662 q-54 -516 -431 -516q-341 0 -341 324zM335 1022q0 -26 1 -48q5 -91 53.5 -136t153.5 -45q145 0 243 96l29 286q7 65 7 118q0 110 -30 169q-46 89 -167 89q-123 0 -191.5 -86t-87.5 -265q-11 -102 -11 -178z" />
<glyph unicode=":" horiz-adv-x="396" d="M115 171l23 219h159l-23 -219h-159zM188 867l24 219h158l-23 -219h-159z" />
<glyph unicode=";" horiz-adv-x="426" d="M87 9q59 24 83 57t31 96h-88l22 211h166l-20 -195q-11 -103 -49 -157.5t-121 -77.5zM191 903l24 224h158l-24 -224h-158z" />
<glyph unicode="&#x3c;" horiz-adv-x="744" d="M72 544l15 148l613 430l-17 -156l-488 -348l416 -338l-16 -154z" />
<glyph unicode="=" horiz-adv-x="820" d="M121 584l12 119h612l-13 -119h-611zM156 927l13 120h612l-13 -120h-612z" />
<glyph unicode="&#x3e;" horiz-adv-x="744" d="M86 126l16 155l489 349l-417 337l17 155l524 -419l-15 -148z" />
<glyph unicode="?" horiz-adv-x="971" d="M215 1328q0 64 19 119q26 78 81.5 128t132 77t166.5 27q176 0 272 -111q79 -91 79 -247q0 -35 -4 -74q-11 -99 -46 -184t-97 -161t-133.5 -139.5t-175.5 -138.5l-22 -212h-133l27 253q203 137 310 277t125 308q3 26 3 50q0 106 -51 170q-63 78 -169 78q-117 0 -184 -66 q-57 -55 -57 -145q0 -17 2 -34l6 -73l-139 -29l-9 73q-3 28 -3 54zM305 1l18 177h149l-18 -177h-149z" />
<glyph unicode="@" horiz-adv-x="1726" d="M134 484q0 75 9 158q21 204 80.5 371.5t146.5 285.5t200 199t240 119.5t268 39.5h6q177 0 305 -57q130 -58 201.5 -166t96.5 -261q12 -71 12 -150q0 -91 -16 -193q-21 -151 -74 -268.5t-122.5 -184.5t-144 -100.5t-148.5 -33.5q-76 0 -124 51q-38 40 -38 101q0 18 3 38 q-39 -83 -101 -138t-145 -58h-18q-120 0 -183 91q-52 78 -52 202q0 31 3 66q14 129 65 248t124.5 205.5t166 138t185.5 51.5q77 0 138 -52l22 39h111l-177 -711q-8 -36 -12 -58.5t-4.5 -47.5t6 -39t21.5 -23t40 -9q48 0 98 27.5t98.5 82t87.5 151t56 220.5q16 107 16 197 q0 222 -94 348q-131 176 -421 176h-7q-149 -2 -280.5 -62.5t-234.5 -173t-171.5 -281.5t-90.5 -377q-9 -74 -9 -139q0 -25 1 -49q5 -85 18.5 -155t41 -126t60.5 -99.5t77 -75.5t90.5 -54t101 -35.5t108 -19.5t112.5 -6q183 0 381 53l21 -110q-247 -60 -426 -60 q-137 0 -251 27.5t-211 91.5t-159.5 163t-88.5 249q-15 85 -15 183zM679 533q0 -83 31 -128q36 -53 96 -53q9 0 18 1q66 4 127 63t103 165l129 517q-41 27 -93 27q-65 0 -132 -39t-124 -106.5t-98 -168.5t-53 -217q-4 -33 -4 -61z" />
<glyph unicode="A" horiz-adv-x="977" d="M11 0l524 1658h164l178 -1658h-153l-35 443h-396l-131 -443h-151zM327 557h353l-84 894z" />
<glyph unicode="B" horiz-adv-x="1027" d="M99 0l174 1658h356q217 0 301 -107q67 -86 67 -230q0 -36 -4 -76q-9 -86 -34.5 -155.5t-80.5 -124.5t-133 -71q212 -61 212 -330q0 -40 -5 -84q-9 -84 -26.5 -152t-51.5 -130.5t-82 -105t-119.5 -67.5t-162.5 -25h-411zM269 117h225q155 0 220.5 83.5t86.5 278.5 q4 39 4 74q0 270 -235 270h-227zM355 944h226q133 0 194.5 77t76.5 224q4 38 4 70q0 33 -4 61q-9 52 -41 90t-91.5 55t-153.5 17h-148z" />
<glyph unicode="C" horiz-adv-x="1021" d="M113 334v19q0 69 6 146l69 659q10 96 29.5 171.5t56 142t88 110.5t127.5 69t173 25q109 0 183 -33t111.5 -94t49.5 -149q7 -42 7 -90q0 -50 -7 -105l-11 -102h-148l10 97q6 62 6 114q0 40 -3 73q-8 78 -58.5 121.5t-151.5 43.5q-66 0 -115 -18t-81 -48.5t-54 -80 t-33 -102t-19 -125.5l-74 -704q-6 -57 -6 -104q0 -115 34 -177q48 -88 196 -88q76 0 128 24.5t82.5 75.5t46.5 111t25 148l11 108h148l-10 -97q-12 -115 -39.5 -201t-78 -155t-133 -104.5t-195.5 -35.5q-98 0 -170 26t-112.5 73.5t-63.5 112.5t-24 143z" />
<glyph unicode="D" horiz-adv-x="1067" d="M99 0l174 1658h363q126 0 211 -34t128.5 -100.5t56.5 -152.5q8 -46 8 -99q0 -47 -6 -101l-69 -659q-13 -121 -44.5 -212t-88.5 -160t-147 -104.5t-211 -35.5h-375zM269 117h208q55 0 99.5 11t76.5 29.5t56.5 49t40.5 62.5t28 78.5t18.5 88.5t12.5 100l65 619q6 65 6 119 q0 50 -5 90q-11 86 -72 130t-182 44h-203z" />
<glyph unicode="E" d="M99 0l174 1658h599l-12 -120h-443l-65 -621h362l-12 -116h-362l-72 -684h448l-13 -117h-604z" />
<glyph unicode="F" horiz-adv-x="790" d="M99 0l174 1658h598l-12 -117h-441l-65 -623h366l-12 -116h-366l-85 -802h-157z" />
<glyph unicode="G" horiz-adv-x="1064" d="M111 380q0 59 8 125l68 648q13 126 42 217.5t83 162.5t141 107t208 36q215 0 295 -120q62 -91 62 -251q0 -50 -6 -106l-6 -59h-147l6 59q6 60 6 109q0 48 -5 86q-12 79 -63.5 118.5t-151.5 39.5q-67 0 -117.5 -19.5t-82.5 -51t-54 -83t-32.5 -104.5t-18.5 -126l-72 -681 q-6 -62 -6 -114q0 -50 6 -92q11 -85 66.5 -130.5t160.5 -45.5q146 0 212.5 95t86.5 291l21 196h-244l13 115h388l-85 -802h-100l1 188q-91 -210 -321 -210q-115 0 -192.5 38t-115 107t-49.5 166q-5 43 -5 91z" />
<glyph unicode="H" horiz-adv-x="1124" d="M99 0l174 1658h157l-77 -735h522l77 735h157l-174 -1658h-157l85 808h-522l-85 -808h-157z" />
<glyph unicode="I" horiz-adv-x="454" d="M106 0l174 1658h154l-174 -1658h-154z" />
<glyph unicode="J" horiz-adv-x="571" d="M-37 -73l12 118q60 0 99 4t70.5 17.5t49 31.5t31 53.5t20.5 76t14 106.5l139 1324h157l-139 -1334q-10 -87 -23.5 -146t-40 -110t-66.5 -80t-100.5 -45t-144.5 -16h-78z" />
<glyph unicode="K" horiz-adv-x="969" d="M99 0l174 1658h157l-92 -874l535 874h150l-417 -712l316 -946h-155l-286 864l-160 -248l-65 -616h-157z" />
<glyph unicode="L" horiz-adv-x="783" d="M99 0l174 1658h157l-161 -1541h471l-12 -117h-629z" />
<glyph unicode="M" horiz-adv-x="1316" d="M85 0l217 1658h153l179 -1439l483 1439h157l-133 -1658h-130l107 1322l-456 -1322h-100l-174 1319l-171 -1319h-132z" />
<glyph unicode="N" horiz-adv-x="1065" d="M99 0l174 1658h115l393 -1287l135 1287h134l-174 -1658h-110l-395 1302l-137 -1302h-135z" />
<glyph unicode="O" horiz-adv-x="1074" d="M112 365q0 59 6 125l72 688q12 117 43 205t86.5 155.5t143 102.5t205.5 35q95 0 165.5 -23t114 -66.5t69 -104.5t29.5 -138q1 -25 1 -52q0 -54 -5 -114l-73 -690q-12 -117 -42.5 -206.5t-85.5 -159.5t-143.5 -106.5t-207.5 -36.5q-97 0 -168 24t-114 69t-67.5 108 t-27.5 141q-1 21 -1 44zM266 363q0 -26 2 -51q6 -64 29 -110t74.5 -71.5t131.5 -25.5t136.5 24.5t90.5 73.5t51.5 109t26.5 144l79 750q6 49 6 93q0 26 -2 50q-6 64 -29 109t-74.5 69.5t-131.5 24.5t-136.5 -23.5t-90.5 -71.5t-51.5 -107.5t-26.5 -143.5l-79 -750 q-6 -49 -6 -93z" />
<glyph unicode="P" horiz-adv-x="990" d="M99 0l174 1658h398q109 0 183.5 -31t113.5 -90.5t52 -137.5q6 -41 6 -90q0 -42 -5 -90q-10 -92 -40 -168t-81.5 -137t-133 -95t-185.5 -34h-242l-83 -785h-157zM351 901h199q153 0 226 70.5t91 246.5q5 64 5 113q0 25 -1 45q-4 63 -35 100t-81 51.5t-135 14.5h-201z" />
<glyph unicode="Q" horiz-adv-x="1085" d="M110 378q0 54 8 112l72 688q12 116 43.5 205t88 156t145 102t206.5 35t199 -35t123 -102.5t55 -156.5q8 -46 8 -101q0 -48 -6 -103l-73 -690q-13 -125 -46 -218t-100 -163.5t-165 -100.5q33 -55 105.5 -137.5t115.5 -120.5l-88 -74q-56 44 -130 133.5t-124 173.5 q-34 -2 -52 -2q-120 0 -202 37.5t-122 105t-54 161.5q-7 45 -7 95zM266 368q0 -29 3 -56q7 -64 30.5 -110t76 -71.5t132.5 -25.5t137.5 24.5t92 73t53 109t27.5 144.5l79 750q6 46 6 88q0 29 -3 55q-7 64 -30.5 109t-76 69.5t-132.5 24.5t-137 -23.5t-92 -71.5t-53.5 -108 t-27.5 -143l-79 -750q-6 -46 -6 -88z" />
<glyph unicode="R" horiz-adv-x="1049" d="M99 0l174 1658h377q113 0 190.5 -28.5t119 -84t54.5 -130.5q7 -42 7 -93q0 -39 -4 -83q-36 -343 -272 -391l168 -848h-154l-158 815h-259l-86 -815h-157zM354 930h211q150 0 216.5 73.5t83.5 235.5q4 42 4 77q0 102 -35 154q-49 71 -200 71h-216z" />
<glyph unicode="S" horiz-adv-x="942" d="M82 400q0 15 1 30l143 40q0 -66 5.5 -116.5t21 -99t41.5 -79.5t69.5 -50t102.5 -19q235 0 259 240q2 20 2 39q0 49 -15 94q-20 63 -54.5 110t-97.5 115l-264 282q-70 75 -98 156q-21 59 -21 128q0 24 3 50q18 169 128.5 262t282.5 94h7q181 0 266 -98q82 -92 82 -290 q0 -16 -1 -33l-136 -34v25q0 149 -45 227q-48 80 -171 80h-12q-110 -3 -178 -57t-80 -163q-2 -17 -2 -33q0 -49 16 -90q21 -56 77 -118l263 -277q102 -108 155 -218q43 -87 43 -187q0 -26 -3 -53q-19 -181 -133.5 -279t-286.5 -98q-197 0 -286 118q-84 110 -84 302z" />
<glyph unicode="T" horiz-adv-x="795" d="M107 1538l13 120h814l-13 -120h-324l-162 -1538h-157l162 1538h-333z" />
<glyph unicode="U" horiz-adv-x="1100" d="M125 336q0 55 5 117l126 1205h151l-127 -1210q-7 -43 -7 -83q0 -27 3 -53q8 -63 31 -109t76 -72t134 -26q78 0 135 25.5t92 74t54 107.5t27 136l127 1210h150l-126 -1205q-11 -109 -40.5 -191.5t-83 -148.5t-141.5 -100t-208 -34q-99 0 -171.5 22.5t-114.5 64.5 t-65.5 100.5t-25.5 130.5q-1 19 -1 39z" />
<glyph unicode="V" horiz-adv-x="1003" d="M179 1658h149l169 -1372l439 1372h147l-548 -1658h-142z" />
<glyph unicode="W" horiz-adv-x="1464" d="M200 1657l134 1l77 -1346l390 1321h128l116 -1323l345 1348h132l-442 -1658h-122l-119 1369l-405 -1369h-126z" />
<glyph unicode="X" horiz-adv-x="949" d="M-16 0l449 864l-271 795h144l229 -662l354 662h150l-453 -814l289 -845h-148l-240 700l-353 -700h-150z" />
<glyph unicode="Y" horiz-adv-x="961" d="M164 1658h153l201 -921l384 921h153l-481 -1107l-58 -551h-152l57 551z" />
<glyph unicode="Z" horiz-adv-x="834" d="M24 0l13 118l705 1423h-511l12 117h678l-8 -81l-723 -1460h571l-12 -117h-725z" />
<glyph unicode="[" horiz-adv-x="619" d="M64 -327l209 1985h357l-8 -83h-206l-191 -1818h206l-9 -84h-358z" />
<glyph unicode="\" horiz-adv-x="705" d="M179 1658h132l298 -1658h-132z" />
<glyph unicode="]" horiz-adv-x="584" d="M3 -326l10 83h206l190 1817h-206l9 84h357l-208 -1984h-358z" />
<glyph unicode="^" horiz-adv-x="808" d="M124 1047l331 611h157l202 -611h-135l-156 507l-263 -507h-136z" />
<glyph unicode="_" horiz-adv-x="681" d="M-68 -218l12 118h681l-12 -118h-681z" />
<glyph unicode="`" horiz-adv-x="482" d="M237 1658h151l73 -400h-77z" />
<glyph unicode="a" horiz-adv-x="813" d="M59 212q0 17 2 35q7 59 22 105.5t46.5 87.5t67.5 72.5t100 67t127.5 65.5t164.5 73l9 85q7 67 7 117q0 71 -15 108q-24 61 -109 61q-165 0 -186 -203l-5 -43l-147 5q1 8 5 36q24 168 112 243t241 75q156 0 213 -93q40 -67 40 -192q0 -49 -6 -106l-60 -576 q-14 -124 -14 -213v-22h-133q-4 121 -4 164q-36 -78 -106 -130.5t-159 -52.5q-104 0 -163 77q-50 64 -50 154zM213 248q0 -62 27 -96q35 -42 94 -42q61 0 115 41.5t90 98.5l39 369q-181 -91 -234 -127q-90 -62 -116 -144q-9 -30 -13 -66q-2 -18 -2 -34z" />
<glyph unicode="b" horiz-adv-x="852" d="M71 0l174 1658h150l-59 -572q104 116 238 116q56 0 97.5 -18t66.5 -52t40 -76t20 -98q3 -43 3 -83q0 -14 -1 -27q-1 -53 -8 -118l-26 -250q-10 -94 -26 -168t-42.5 -137.5t-63 -105t-88 -65t-116.5 -23.5q-115 0 -199 113l-10 -94h-150zM241 186q73 -86 177 -86 q40 0 69.5 16.5t50.5 45t36 77.5t24.5 104.5t17.5 134.5l26 252q10 96 10 167v28q-3 79 -34.5 119t-98.5 40q-93 0 -193 -91z" />
<glyph unicode="c" horiz-adv-x="796" d="M84 309q0 66 10 140l30 276q13 129 36 214.5t65 146.5t106.5 88.5t158.5 27.5q92 0 150.5 -27.5t83.5 -77t32 -119.5q3 -27 3 -56q0 -47 -7 -99l-6 -56h-138l6 56q5 51 5 91q0 81 -20 119q-30 57 -119 57q-103 0 -143.5 -72.5t-60.5 -267.5l-35 -332q-8 -74 -8 -129 q0 -82 17 -124q28 -71 126 -71q52 0 86 16.5t55 55.5t31.5 87t18.5 127l7 65h138l-6 -58q-8 -78 -20.5 -135t-37.5 -110.5t-61 -87t-93 -53.5t-132 -20q-100 0 -162 35.5t-86 98t-29 147.5q-1 23 -1 47z" />
<glyph unicode="d" horiz-adv-x="845" d="M88 313q0 74 10 165l22 219q10 98 25.5 172t41 139t61 106t87 64.5t118.5 23.5q116 0 197 -103l59 559h150l-174 -1658h-150l9 85q-101 -103 -213 -104q-153 0 -207 115q-36 76 -36 217zM237 314q0 -81 14 -128q25 -86 123 -86q87 0 180 79l86 821q-82 84 -167 84 q-95 0 -137 -79.5t-61 -259.5l-29 -279q-9 -87 -9 -152z" />
<glyph unicode="e" horiz-adv-x="809" d="M86 307q0 63 8 138l31 299q18 173 64.5 274.5t119.5 142.5t186 41q123 0 185 -52.5t76 -160.5q5 -46 5 -103q0 -77 -10 -172l-13 -107h-477l-19 -177q-8 -75 -8 -132q0 -83 16 -128q28 -76 126 -76q78 0 125.5 49.5t60.5 179.5l9 82h147l-8 -66q-18 -172 -99.5 -265 t-245.5 -93q-170 0 -234 105q-45 74 -45 221zM270 693h331l10 98q8 80 8 140q0 10 -1 19q-1 67 -34 103.5t-102 36.5q-64 0 -102.5 -27t-63 -95.5t-38.5 -194.5z" />
<glyph unicode="f" horiz-adv-x="549" d="M104 1075l11 109h154l13 123q6 60 14 100t25 81t42.5 65.5t67.5 39.5t99 15q53 0 120 -13l-12 -113q-69 11 -84 11q-64 0 -87.5 -38.5t-33.5 -131.5l-15 -139h192l-11 -109h-192l-113 -1075h-149l113 1075h-154z" />
<glyph unicode="g" horiz-adv-x="883" d="M-33 -207q0 9 1 18q9 86 74 157.5t152 114.5q-52 15 -88 43q-33 26 -33 56v6q10 94 166 239q-114 90 -114 282q0 38 4 80q9 86 37 159.5t73 131t113 90t151 32.5q179 0 239 -147q22 32 71.5 71t102.5 61l32 13l29 -105q-51 -12 -114.5 -43t-90.5 -60q11 -37 16 -102 q2 -30 2 -55q0 -28 -3 -50q-20 -191 -110 -302.5t-260 -111.5q-28 0 -66 6.5t-52 12.5q-5 -7 -26.5 -34.5t-33 -43.5t-23.5 -38q-14 -25 -14 -40q0 -27 94 -43q20 -5 98 -17t89 -15q144 -25 211 -90q58 -55 58 -149q0 -16 -2 -34q-15 -141 -121 -208t-276 -67 q-94 0 -164.5 10t-123.5 33t-77 62q-21 33 -21 77zM102 -154q0 -57 55 -84q61 -31 207 -31q116 0 187 37t79 114q1 9 1 18q0 52 -36 83q-42 36 -171 60l-149 20q-62 -36 -113.5 -87.5t-58.5 -115.5q-1 -7 -1 -14zM259 708q0 -229 169 -229q50 0 89 19t62.5 48t40 72.5 t24 82.5t12.5 88q5 44 5 82q0 224 -167 224q-59 0 -103 -28t-69.5 -76t-39 -97t-19.5 -105q-4 -43 -4 -81z" />
<glyph unicode="h" horiz-adv-x="844" d="M72 0l174 1658h150l-62 -598q147 142 302 142q88 0 128 -66q31 -49 31 -130q0 -27 -3 -56l-100 -950h-151l97 918q3 25 3 47q0 54 -17 81q-23 38 -81 38q-99 0 -219 -110l-102 -974h-150z" />
<glyph unicode="i" horiz-adv-x="418" d="M86 0l124 1184h150l-124 -1184h-150zM228 1347l21 204h151l-22 -204h-150z" />
<glyph unicode="j" horiz-adv-x="436" d="M-111 -303l12 114q11 -3 51 -3q45 0 75.5 12.5t47 38t23.5 51t11 62.5l127 1212h150l-129 -1225q-27 -269 -289 -269q-62 0 -79 7zM253 1347l22 204h151l-22 -204h-151z" />
<glyph unicode="k" horiz-adv-x="820" d="M71 2l175 1658h150l-111 -1054l455 578h160l-347 -457l208 -727h-150l-181 644l-162 -196l-47 -446h-150z" />
<glyph unicode="l" horiz-adv-x="414" d="M90 0l174 1658h151l-174 -1658h-151z" />
<glyph unicode="m" horiz-adv-x="1304" d="M69 0l124 1184h150l-12 -122q143 140 298 140q139 0 157 -152q150 152 310 152q89 0 129 -66q30 -49 30 -130q0 -26 -3 -56l-100 -950h-150l96 918q3 27 3 49q0 52 -17 79q-23 38 -81 38q-98 0 -217 -110q0 -15 -2 -37l-99 -937h-150l96 918q3 27 3 49q0 52 -16 79 q-24 38 -82 38q-97 0 -214 -108l-103 -976h-150z" />
<glyph unicode="n" horiz-adv-x="838" d="M69 0l124 1184h150l-12 -123q144 141 299 141q89 0 129 -66q30 -49 30 -130q0 -26 -3 -56l-100 -950h-150l96 918q3 27 3 49q0 52 -17 79q-23 38 -81 38q-99 0 -215 -109l-103 -975h-150z" />
<glyph unicode="o" d="M85 306q0 56 7 122l35 328q12 111 35 190t64.5 138.5t106.5 88.5t156 29q176 0 235 -110q41 -77 41 -214q0 -56 -7 -122l-34 -328q-12 -112 -35.5 -191.5t-65 -138.5t-106.5 -88t-156 -29q-176 0 -235 110q-41 78 -41 215zM232 250.5q0 -72.5 33.5 -114.5t107.5 -42 q38 0 67 10t49 32.5t33.5 48t23 66.5t15 77.5t11.5 91.5l37 344q6 56 8 92q1 23 1 50v27q-1 42 -9.5 67t-24 47.5t-42.5 32.5t-65 10q-45 0 -78 -16.5t-53 -42t-34 -71t-20.5 -88t-13.5 -108.5l-37 -344q-9 -97 -9 -169.5z" />
<glyph unicode="p" horiz-adv-x="855" d="M29 -390l165 1574h150l-9 -98q104 116 238 116q56 0 97.5 -18t66.5 -52t40 -76t19 -98q4 -43 4 -83v-27q-2 -53 -9 -118l-26 -250q-10 -94 -25.5 -168t-42.5 -137.5t-63.5 -105t-88 -65t-116.5 -23.5q-115 0 -199 114l-51 -485h-150zM240 187q72 -87 177 -87 q95 0 136 88.5t62 289.5l26 252q10 96 10 167q0 14 -1 28q-2 79 -33.5 119t-98.5 40q-91 0 -193 -91z" />
<glyph unicode="q" horiz-adv-x="848" d="M92 313q0 74 10 165l22 219q10 98 25.5 172t41 139t61 106t87 64.5t118.5 23.5q117 0 198 -103l8 85h150l-165 -1574h-150l50 475q-99 -103 -213 -104q-153 0 -207 115q-36 76 -36 217zM241 314q0 -81 14 -128q25 -86 123 -86q88 0 180 80l86 820q-80 84 -167 84 q-95 0 -137 -79.5t-61 -259.5l-29 -279q-9 -87 -9 -152z" />
<glyph unicode="r" horiz-adv-x="610" d="M81 0l124 1184h150l-16 -163q63 90 140 133t151 43q17 0 26 -1l-17 -162q-32 13 -71 13q-145 0 -241 -138l-96 -909h-150z" />
<glyph unicode="s" horiz-adv-x="743" d="M51 303v15l130 38v-12q0 -125 41 -186q44 -64 134 -64q78 0 127.5 46t56.5 125q1 8 1 17q0 109 -120 219l-147 137q-77 71 -109 139q-24 51 -24 113q0 22 3 45q16 127 98.5 197t212.5 70t192 -84q56 -75 56 -199q0 -13 -1 -28l-110 -35q1 14 1 28q0 206 -144 206 q-70 0 -116 -39t-53 -105q-1 -13 -1 -25q0 -40 13 -71q16 -42 67 -90l151 -150q41 -39 66.5 -68.5t52.5 -73t37 -94.5q8 -34 8 -71q0 -18 -2 -37q-15 -136 -104.5 -210.5t-229.5 -74.5t-216 91q-71 86 -71 231z" />
<glyph unicode="t" horiz-adv-x="573" d="M107 1084l10 100h143l39 366h150l-39 -366h197l-10 -100h-197l-87 -824q-3 -30 -3 -54q0 -47 12 -69q17 -34 80 -34q41 0 86 8l-12 -113q-68 -13 -128 -13q-63 0 -104 19t-59.5 53.5t-24.5 82.5q-2 21 -2 44q0 30 4 62l88 838h-143z" />
<glyph unicode="u" horiz-adv-x="843" d="M82 179q0 26 3 56l99 949h151l-96 -918q-3 -27 -3 -49q0 -52 16 -79q24 -38 82 -38q102 0 221 117l102 967h150l-124 -1184h-150l14 131q-147 -149 -306 -149q-89 0 -129 66q-30 50 -30 131z" />
<glyph unicode="v" horiz-adv-x="753" d="M115 1184h152l87 -1011l296 1011h146l-370 -1184h-177z" />
<glyph unicode="w" horiz-adv-x="1177" d="M143 1184h128l45 -989l289 989h129l85 -985l246 985h127l-315 -1184h-141l-87 963l-286 -963h-151z" />
<glyph unicode="x" horiz-adv-x="778" d="M-12 0l345 619l-208 565h149l158 -434l239 434h151l-337 -582l218 -602h-143l-171 466l-256 -466h-145z" />
<glyph unicode="y" horiz-adv-x="780" d="M6 -295l13 117q108 0 163.5 17t73.5 48q16 29 16 84v6q-2 35 -18 164l-135 1043h150l100 -1007l304 1007h151l-420 -1269q-38 -113 -122.5 -161.5t-236.5 -48.5h-39z" />
<glyph unicode="z" horiz-adv-x="683" d="M21 0l11 105l505 965h-362l12 114h519l-9 -89l-504 -981h393l-12 -114h-553z" />
<glyph unicode="{" horiz-adv-x="528" d="M98 615l12 116q74 0 102 52.5t46 222.5l27 255q6 62 11 100.5t12 82t13.5 68t17.5 52t22.5 41t30.5 28.5t39 21t50 11.5t62 7t76 1.5l-12 -112q-79 0 -104 -20q-31 -24 -45 -118q-6 -41 -19 -162v-1l-31 -287q-15 -149 -50.5 -215.5t-101.5 -85.5q42 -12 64 -43t30 -94 q2 -25 2 -55q0 -47 -7 -109l-31 -296q-17 -112 -17 -177q0 -14 1 -26q4 -67 26 -82.5t95 -15.5l-12 -113q-55 0 -92 2t-68.5 12t-49.5 20t-31 36.5t-17.5 51t-4.5 74t4 95t12 123.5l28 264q10 81 10 136q0 19 -1 35q-5 61 -26.5 82.5t-72.5 21.5z" />
<glyph unicode="|" horiz-adv-x="445" d="M76 -295l206 1954h140l-206 -1954h-140z" />
<glyph unicode="}" horiz-adv-x="552" d="M-17 -338l12 113q78 0 104 19q31 24 45 116q7 42 20 165v1l31 296q11 102 31 164.5t48.5 93.5t73.5 43q-63 19 -84 85q-12 38 -12 106q0 48 6 110l31 287q17 110 17 174q0 16 -1 29q-5 66 -27 82t-95 16l12 112q55 0 92 -2t68.5 -12t49.5 -20t31 -36.5t17.5 -51t4.5 -74 t-4 -94.5t-12 -123l-27 -255q-11 -83 -11 -138q0 -18 2 -33q4 -61 26 -82.5t73 -21.5l-12 -116q-51 0 -78.5 -23t-42.5 -79t-27 -173l-28 -264q-8 -78 -13.5 -123.5t-15.5 -95t-20 -74t-28.5 -51t-38.5 -36.5t-54 -20t-71.5 -12t-92.5 -2z" />
<glyph unicode="~" horiz-adv-x="833" d="M125 869q55 55 115.5 92t103.5 37q36 0 88 -28t101 -56t79 -28q19 0 42.5 10.5t42 23.5t59.5 42l47 -69q-134 -126 -211 -126q-37 0 -89 28.5t-102 57t-80 28.5q-50 0 -149 -82z" />
<glyph unicode="&#xa1;" horiz-adv-x="412" d="M39 -396l191 1302h54l-85 -1302h-160zM196 1083l19 179h160l-19 -179h-160z" />
<glyph unicode="&#xa2;" horiz-adv-x="783" d="M84 274v36q0 66 10 139l30 276q25 242 94.5 352t225.5 123l19 185h62l-19 -183q86 -3 141 -31.5t79 -78t30 -118.5q3 -25 3 -52q0 -47 -7 -99l-6 -56h-138l6 56q5 51 5 91q0 81 -20 119q-30 57 -119 57q-103 0 -143.5 -72.5t-60.5 -267.5l-35 -332q-8 -74 -8 -129 q0 -82 17 -124q28 -71 126 -71q52 0 86 16.5t55 55.5t31.5 87t18.5 127l7 65h138l-6 -58q-8 -77 -20.5 -133.5t-37 -109.5t-60 -86.5t-90.5 -54.5t-128 -22l-19 -185h-62l20 188q-82 9 -132.5 48t-69.5 100t-23 142z" />
<glyph unicode="&#xa3;" horiz-adv-x="769" d="M-24 0l8 76l129 35l70 663h-125l12 112h124l25 234q8 76 16.5 132.5t23 117.5t33 104t46.5 83.5t63.5 65t84.5 39t109 14.5q77 0 127.5 -25.5t73 -71t30.5 -107.5q3 -28 3 -59q0 -36 -5 -76l-5 -51h-114q6 65 6 115q0 16 -1 31q-2 60 -33 92.5t-95 32.5 q-38 0 -67.5 -11.5t-50 -36.5t-34.5 -52.5t-24.5 -73t-16 -83.5t-12.5 -97l-33 -317h272l-11 -112h-273l-69 -663h429l-12 -111h-704z" />
<glyph unicode="&#xa4;" horiz-adv-x="1078" d="M54 411l180 162q-83 105 -83 242q0 25 3 51q18 169 142 293l-146 162l33 30l145 -162q135 115 302 115h3h3q169 0 278 -115l179 162l27 -30l-179 -162q82 -105 82 -241q0 -26 -3 -52q-18 -169 -142 -293l146 -162l-33 -30l-145 162q-133 -115 -302 -115h-3h-3 q-167 0 -278 115l-179 -162zM227 820q0 -123 78 -214q92 -108 243 -108t265.5 107.5t130.5 260.5q3 24 3 46q0 124 -79 215q-92 108 -243 108t-265 -108t-130 -261q-3 -24 -3 -46z" />
<glyph unicode="&#xa5;" horiz-adv-x="889" d="M139 1658h153l201 -921l384 921h153l-456 -1050h182l-10 -98h-201l-20 -185h201l-10 -100h-201l-24 -225h-152l23 225h-204l11 100h204l19 185h-204l11 98h184z" />
<glyph unicode="&#xa6;" horiz-adv-x="414" d="M63 -348l89 850h126l-89 -850h-126zM184 808l89 850h126l-89 -850h-126z" />
<glyph unicode="&#xa7;" horiz-adv-x="820" d="M75 298l118 38q7 -46 21.5 -85.5t37 -73.5t56.5 -54t75 -20q75 0 125.5 41t60.5 112q2 14 2 28q0 39 -16 76q-22 52 -105 141l-209 188q-111 94 -111 211q0 12 1 25q10 91 67 153.5t140 91.5q-125 114 -125 225q0 11 1 21q12 116 101.5 187.5t227.5 71.5q225 0 279 -296 l-121 -38q-7 32 -14.5 56t-22 55t-31.5 51.5t-44.5 35t-60.5 14.5q-67 0 -113.5 -39.5t-53.5 -110.5q-1 -6 -1 -13q0 -75 95 -166l213 -175q71 -63 102 -135q22 -49 22 -108q0 -28 -5 -58q-24 -153 -184 -234q27 -31 42.5 -51.5t34 -52.5t25.5 -67q4 -22 4 -46q0 -14 -1 -28 q-13 -134 -106 -210.5t-234 -76.5q-68 0 -122 25.5t-88 71t-54 100t-29 119.5zM277 912q0 -62 56 -120l183 -195q49 20 89.5 59.5t50.5 91.5q4 18 4 36q0 90 -93 174l-145 132q-58 -20 -98 -62.5t-46 -101.5q-1 -7 -1 -14z" />
<glyph unicode="&#xa8;" horiz-adv-x="784" d="M250 1477l19 181h154l-19 -181h-154zM586 1477l19 181h154l-19 -181h-154z" />
<glyph unicode="&#xa9;" horiz-adv-x="1765" d="M97 739q0 52 7 104q13 129 54.5 250.5t118 234t179 196.5t247.5 134t315 50q169 0 303.5 -50t219 -134t137 -196.5t68.5 -233.5q9 -68 9 -137q0 -56 -6 -114q-14 -129 -55 -250.5t-117 -234t-178.5 -196.5t-247.5 -134t-315 -50q-107 0 -201 20t-166.5 56.5t-133 87.5 t-101.5 112.5t-72 132t-44.5 146t-19.5 153.5q-1 27 -1 53zM184 733q0 -64 8 -125q15 -113 63 -215.5t125 -178t196.5 -120t269.5 -44.5t278.5 44.5t222 120t163 178t108.5 216t52 236.5q6 57 6 112q0 63 -8 124q-15 113 -63.5 215t-125.5 177t-196.5 119t-269.5 44 t-279 -44t-222 -119t-162.5 -177t-108 -215t-51.5 -236q-6 -57 -6 -112zM539 592q0 70 11 149l24 233q12 111 30 189.5t48 140.5t74 98.5t105.5 55.5t145.5 19q102 0 166.5 -27t93 -77.5t35.5 -122.5q3 -27 3 -56q0 -51 -8 -108l-6 -56h-146l6 55q6 53 6 94q0 46 -7 77 q-14 60 -49 81.5t-104 21.5q-115 0 -161.5 -75.5t-68.5 -283.5l-30 -291q-8 -73 -8 -129q0 -93 21 -139q33 -74 144 -74q112 0 153.5 62.5t58.5 228.5l6 59h146l-5 -52q-9 -84 -22 -142.5t-39.5 -113.5t-66 -88t-101.5 -52.5t-146 -19.5q-111 0 -179.5 36.5t-95.5 101.5 t-33 155q-1 25 -1 50z" />
<glyph unicode="&#xaa;" horiz-adv-x="842" d="M198 877q0 15 2 30q4 40 16.5 72.5t28.5 58.5t48 50.5t60.5 43t82.5 42.5t98 41t121 46l9 89q5 46 5 81q0 60 -13 93q-22 52 -89 52q-65 0 -108 -44.5t-53 -138.5l-124 2q17 138 93.5 212t204.5 74q142 0 188 -85q31 -59 31 -168q0 -48 -6 -106l-64 -612h-118l8 123 q-35 -61 -98 -99t-135 -38q-93 0 -144 58q-44 49 -44 123zM334 908q0 -47 24 -72q30 -30 79 -30q55 0 102.5 33t80.5 86l28 269q-58 -26 -84.5 -38t-67 -32.5t-57.5 -33t-40.5 -31.5t-33.5 -36.5t-18.5 -40.5t-11.5 -51q-1 -12 -1 -23z" />
<glyph unicode="&#xab;" horiz-adv-x="873" d="M96 618l7 67l387 441l-20 -191l-246 -281l186 -287l-20 -191zM430 618l6 67l389 441l-20 -191l-246 -283l186 -285l-20 -191z" />
<glyph unicode="&#xac;" horiz-adv-x="745" d="M122 790l12 119h602l-36 -348h-91l24 229h-511z" />
<glyph unicode="&#xad;" horiz-adv-x="684" d="M153 758l11 116h458l-12 -116h-457z" />
<glyph unicode="&#xae;" horiz-adv-x="1795" d="M116 723q0 56 6 113q13 128 54.5 249t117 233t178 195t247 133t313.5 50t302.5 -50t217.5 -133t136 -195t68 -233q9 -67 9 -136q0 -56 -6 -113q-14 -128 -55 -249t-116.5 -233t-177 -195.5t-246 -133.5t-313.5 -50t-303 50t-218.5 133.5t-136.5 195.5t-68 233 q-9 67 -9 136zM208 726q0 -63 8 -122q15 -112 62 -212.5t122.5 -175t193 -118t265.5 -43.5q146 0 272.5 43.5t217.5 118t159 175t106.5 212.5t51.5 232q6 56 6 110q0 63 -8 123q-15 112 -62.5 212t-123 174t-192.5 117t-264 43t-273.5 -43t-218 -117t-159.5 -174t-106 -212 t-51 -233q-6 -56 -6 -110zM594 252l124 1185h336q274 0 274 -256q0 -28 -3 -59q-11 -111 -65.5 -186.5t-155.5 -99.5l145 -584h-138l-132 560h-194l-59 -560h-132zM793 893h168q120 0 168 55t61 177q3 28 3 53q0 71 -25 111q-35 54 -136 54h-191z" />
<glyph unicode="&#xaf;" horiz-adv-x="704" d="M297 1562l10 96h367l-10 -96h-367z" />
<glyph unicode="&#xb0;" horiz-adv-x="846" d="M220 1330q0 22 2 46q15 145 108.5 222.5t223.5 77.5t208 -78q64 -64 64 -177q0 -21 -2 -45q-15 -146 -108.5 -224t-224.5 -78t-207 78q-64 65 -64 178zM337 1342q0 -72 39 -114q46 -52 126 -52t137.5 51.5t67.5 147.5q2 17 2 33q0 72 -39 115q-46 52 -127 52 q-80 0 -137 -51.5t-67 -148.5q-2 -17 -2 -33z" />
<glyph unicode="&#xb1;" horiz-adv-x="695" d="M61 0l13 124h496l-13 -124h-496zM119 553l13 124h185l19 184h127l-19 -184h184l-13 -124h-185l-19 -184h-127l20 184h-185z" />
<glyph unicode="&#xb2;" horiz-adv-x="813" d="M188 725l10 98l318 413q8 11 38.5 50t40.5 54.5t28.5 47t27 60t11.5 62.5q2 19 2 37q0 57 -23 89q-29 40 -93 40h-6q-79 -2 -117.5 -53t-50.5 -166h-110l3 29q31 293 289 293q118 0 178 -69q50 -56 50 -152q0 -21 -2 -43q-6 -59 -33 -119t-55 -102t-83 -113l-277 -356 h342l-10 -100h-478z" />
<glyph unicode="&#xb3;" d="M211 926q0 24 3 51l1 21h121l-3 -26q-2 -21 -2 -39q0 -51 19 -81q25 -40 93 -40q139 0 159 196q3 27 3 51q0 63 -21 103q-29 54 -94 54h-72l10 88h71q68 0 103.5 49t47.5 161q2 19 2 37q0 129 -107 129q-71 0 -106 -37.5t-43 -114.5l-3 -28h-121l3 27q12 119 81.5 185.5 t197.5 66.5q118 0 172 -71q44 -58 44 -148q0 -20 -2 -42q-12 -110 -56.5 -175t-99.5 -77q25 -10 44 -24.5t38 -42t26 -75.5q4 -23 4 -51.5t-4 -60.5q-14 -137 -88.5 -219t-205.5 -82q-125 0 -176 71q-39 56 -39 144z" />
<glyph unicode="&#xb4;" horiz-adv-x="477" d="M185 1258l169 400h151l-243 -400h-77z" />
<glyph unicode="&#xb5;" horiz-adv-x="861" d="M24 -355l160 1539h151l-96 -918q-3 -27 -3 -49q0 -52 16 -79q24 -38 82 -38q102 0 221 117l102 967h150l-124 -1184h-150l14 131q-120 -127 -259 -143h-8q-42 0 -67 20l-38 -363h-151z" />
<glyph unicode="&#xb6;" horiz-adv-x="993" d="M156 1330q0 19 2 39q15 138 113.5 213.5t278.5 75.5h427l-194 -1852h-110l186 1768h-218l-186 -1768h-110l134 1279h-4q-160 0 -245 73q-74 63 -74 172z" />
<glyph unicode="&#xb7;" horiz-adv-x="385" d="M159 683l18 180h152l-18 -180h-152z" />
<glyph unicode="&#xb8;" horiz-adv-x="462" d="M-32 -409l8 77q40 -5 73 -5q123 0 135 72q2 10 2 19q0 37 -30 60q-38 28 -111 42l15 144h79l-11 -104q82 -12 130 -58q41 -39 41 -91q0 -8 -1 -16q-10 -91 -100 -127q-53 -23 -126 -23q-48 0 -104 10z" />
<glyph unicode="&#xb9;" horiz-adv-x="799" d="M324 1535l10 91q137 53 208 143h103l-109 -1044h-119l95 909q-28 -35 -84.5 -62t-103.5 -37z" />
<glyph unicode="&#xba;" horiz-adv-x="842" d="M191 950q0 36 5 75l34 327q17 160 91.5 244.5t231.5 84.5q257 0 257 -260q0 -33 -4 -69l-34 -327q-16 -157 -91 -244t-232 -87q-82 0 -137 23.5t-81.5 67t-35.5 104.5q-4 29 -4 61zM314 971q0 -15 2 -29q3 -43 15.5 -75t44.5 -50.5t82 -18.5q95 0 135 61t53 176l32 307 q5 35 5 67q0 13 -1 26q-3 43 -16 75t-44.5 50t-81.5 18t-85 -17.5t-56 -51.5t-31.5 -73.5t-16.5 -93.5l-32 -307q-5 -33 -5 -64z" />
<glyph unicode="&#xbb;" horiz-adv-x="901" d="M85 176l20 191l256 284l-197 284l20 191l306 -442l-7 -67zM420 176l20 191l255 282l-196 286l20 191l304 -442l-6 -67z" />
<glyph unicode="&#xbc;" horiz-adv-x="1583" d="M218 1424l10 92q58 28 122 69t94 73h58l-104 -990h-118l85 808zM352 0l746 1658h130l-745 -1658h-131zM919 270l9 86l385 649l116 1l-68 -648h126l-9 -88h-126l-30 -279h-121l30 279h-312zM1031 358h209l49 469z" />
<glyph unicode="&#xbd;" horiz-adv-x="1583" d="M227 1424l10 92q58 27 121.5 68.5t93.5 73.5h59l-104 -990h-118l85 808zM357 0l746 1658h130l-746 -1658h-130zM967 0l10 88l260 324q7 8 37 45t39.5 50.5t28 44t27 58.5t11.5 60q2 22 2 40q0 47 -14 76q-20 40 -79 40q-67 0 -96.5 -42.5t-38.5 -127.5h-117q0 2 1 8t1 7 q29 244 259 244q109 0 164 -63q44 -52 44 -139q0 -19 -2 -40q-9 -82 -55.5 -156.5t-130.5 -169.5q-33 -34 -214 -258h322l-10 -89h-449z" />
<glyph unicode="&#xbe;" horiz-adv-x="1583" d="M134 941q0 18 2 37l123 -2q-2 -18 -2 -34q0 -42 13 -69q19 -37 77 -37q112 0 129 167q2 20 2 38q0 131 -115 131l9 90q68 0 101.5 38.5t43.5 130.5q2 22 2 40q0 109 -85 109q-61 0 -88.5 -35.5t-35.5 -103.5l-123 -2q12 108 76 169t179 61q109 0 159 -65q40 -52 40 -133 q0 -19 -2 -40q-11 -99 -59.5 -152.5t-117.5 -60.5q138 -23 138 -173q0 -20 -2 -41q-12 -118 -81 -187t-183 -69q-109 0 -159 61q-41 50 -41 132zM392 0l746 1658h130l-745 -1658h-131zM951 270l9 86l385 649h114l-68 -647h126l-9 -88h-126l-30 -279h-119l29 279h-311z M1063 358h209l49 469z" />
<glyph unicode="&#xbf;" horiz-adv-x="944" d="M13 -68q0 36 4 75q10 99 45 184t97.5 161t134 139t175.5 139l22 212h133l-27 -253q-204 -137 -310.5 -277.5t-124.5 -307.5q-3 -28 -3 -53q0 -105 51 -168q62 -78 168 -78q117 0 184 65q57 56 57 146q0 17 -2 34l-6 74l140 29l9 -73q3 -29 3 -56q0 -92 -39 -164 q-51 -94 -145.5 -140t-215.5 -46q-176 0 -272 112q-78 91 -78 246zM505 1076l19 177h149l-19 -177h-149z" />
<glyph unicode="&#xc0;" horiz-adv-x="977" d="M11 0l524 1658h164l178 -1658h-153l-35 443h-396l-131 -443h-151zM327 557h353l-84 894zM447 2198h151l72 -400h-77z" />
<glyph unicode="&#xc1;" horiz-adv-x="977" d="M11 0l524 1658h164l178 -1658h-153l-35 443h-396l-131 -443h-151zM327 557h353l-84 894zM593 1798l170 400h150l-242 -400h-78z" />
<glyph unicode="&#xc2;" horiz-adv-x="977" d="M11 0l524 1658h164l178 -1658h-153l-35 443h-396l-131 -443h-151zM327 557h353l-84 894zM372 1798l215 363h168l136 -363h-109l-119 289l-180 -289h-111z" />
<glyph unicode="&#xc3;" horiz-adv-x="977" d="M11 0l524 1658h164l178 -1658h-153l-35 443h-396l-131 -443h-151zM327 557h353l-84 894zM367 1814q2 23 8.5 46.5t20.5 50t33 46t50 29.5q23 8 50 8q10 0 20 -1q33 -3 73 -25.5t75 -45t54 -24.5q33 -4 51.5 17t24.5 71h91q-4 -34 -13 -63.5t-28 -61t-55 -49.5 q-29 -14 -67 -14q-8 0 -17 1q-44 2 -112.5 48t-90.5 48q-30 5 -50 -15.5t-24 -65.5h-94z" />
<glyph unicode="&#xc4;" horiz-adv-x="977" d="M11 0l524 1658h164l178 -1658h-153l-35 443h-396l-131 -443h-151zM327 557h353l-84 894zM387 1798l19 181h153l-19 -181h-153zM723 1798l19 181h154l-19 -181h-154z" />
<glyph unicode="&#xc5;" horiz-adv-x="977" d="M11 0l524 1658h164l178 -1658h-153l-35 443h-396l-131 -443h-151zM327 557h353l-84 894zM442 1829q0 14 2 29q9 93 70.5 143.5t144.5 50.5q84 0 135 -51q43 -43 43 -114q0 -14 -2 -29q-9 -92 -71 -143.5t-145 -51.5t-134 51q-43 43 -43 115zM527 1839q0 -42 24 -66 q28 -29 77 -29t83 29t40 85q1 10 1 19q0 43 -23 67q-29 28 -78 28t-83 -29t-40 -85q-1 -10 -1 -19z" />
<glyph unicode="&#xc6;" horiz-adv-x="1301" d="M-104 0l839 1658h622l-13 -118h-451l-64 -622h324l-12 -113h-325l-71 -686h451l-13 -119h-600l47 444h-357l-227 -444h-150zM328 562h313l88 843z" />
<glyph unicode="&#xc7;" horiz-adv-x="1021" d="M113 334v19q0 69 6 146l69 659q10 96 29.5 171.5t56 142t88 110.5t127.5 69t173 25q109 0 183 -33t111.5 -94t49.5 -149q7 -42 7 -90q0 -50 -7 -105l-11 -102h-148l10 97q6 62 6 114q0 40 -3 73q-8 78 -58.5 121.5t-151.5 43.5q-66 0 -115 -18t-81 -48.5t-54 -80 t-33 -102t-19 -125.5l-74 -704q-6 -57 -6 -104q0 -115 34 -177q48 -88 196 -88q76 0 128 24.5t82.5 75.5t46.5 111t25 148l11 108h148l-10 -97q-12 -115 -39.5 -201t-78 -155t-133 -104.5t-195.5 -35.5q-98 0 -170 26t-112.5 73.5t-63.5 112.5t-24 143zM328 -409l8 77 q40 -5 73 -5q123 0 135 72q2 10 2 19q0 37 -30 60q-38 28 -111 42l15 144h79l-11 -104q82 -12 130 -58q41 -39 41 -91q0 -8 -1 -16q-10 -91 -100 -127q-53 -23 -126 -23q-48 0 -104 10z" />
<glyph unicode="&#xc8;" d="M99 0l174 1658h599l-12 -120h-443l-65 -621h362l-12 -116h-362l-72 -684h448l-13 -117h-604zM405 2198h151l72 -400h-77z" />
<glyph unicode="&#xc9;" d="M99 0l174 1658h599l-12 -120h-443l-65 -621h362l-12 -116h-362l-72 -684h448l-13 -117h-604zM550 1798l170 400h150l-242 -400h-78z" />
<glyph unicode="&#xca;" d="M99 0l174 1658h599l-12 -120h-443l-65 -621h362l-12 -116h-362l-72 -684h448l-13 -117h-604zM330 1798l215 363h168l136 -363h-109l-119 289l-180 -289h-111z" />
<glyph unicode="&#xcb;" d="M99 0l174 1658h599l-12 -120h-443l-65 -621h362l-12 -116h-362l-72 -684h448l-13 -117h-604zM344 1798l19 181h153l-19 -181h-153zM680 1798l19 181h154l-19 -181h-154z" />
<glyph unicode="&#xcc;" horiz-adv-x="454" d="M106 0l174 1658h154l-174 -1658h-154zM186 2198h151l72 -400h-77z" />
<glyph unicode="&#xcd;" horiz-adv-x="454" d="M106 0l174 1658h154l-174 -1658h-154zM332 1798l170 400h150l-242 -400h-78z" />
<glyph unicode="&#xce;" horiz-adv-x="454" d="M106 0l174 1658h154l-174 -1658h-154zM111 1798l215 363h168l136 -363h-109l-119 289l-180 -289h-111z" />
<glyph unicode="&#xcf;" horiz-adv-x="454" d="M106 0l174 1658h154l-174 -1658h-154zM126 1798l19 181h153l-19 -181h-153zM462 1798l19 181h154l-19 -181h-154z" />
<glyph unicode="&#xd0;" horiz-adv-x="1068" d="M64 821l10 96h122l77 741h363q102 0 177 -22.5t121 -64.5t72.5 -102t31.5 -135q1 -27 1 -56q0 -51 -5 -107l-69 -659q-10 -96 -31.5 -173t-60 -141.5t-93 -107.5t-131.5 -66.5t-175 -23.5h-375l87 821h-122zM269 117h208q56 0 100 11t76 29.5t57 49t41 62.5t27.5 78.5 t18 88.5t12.5 100l65 619q8 66 8 121q0 22 -1 44q-5 71 -30 119.5t-81.5 73.5t-148.5 25h-203l-65 -621h166l-10 -96h-166z" />
<glyph unicode="&#xd1;" horiz-adv-x="1065" d="M99 0l174 1658h115l393 -1287l135 1287h134l-174 -1658h-110l-395 1302l-137 -1302h-135zM411 1814q2 23 8.5 46.5t20.5 50t33 46t50 29.5q23 8 50 8q10 0 20 -1q33 -3 73 -25.5t75 -45t54 -24.5q33 -4 51.5 17t24.5 71h91q-4 -34 -13 -63.5t-28 -61t-55 -49.5 q-29 -14 -67 -14q-8 0 -17 1q-44 2 -112.5 48t-90.5 48q-30 5 -50 -15.5t-24 -65.5h-94z" />
<glyph unicode="&#xd2;" horiz-adv-x="1074" d="M112 365q0 59 6 125l72 688q12 117 43 205t86.5 155.5t143 102.5t205.5 35q95 0 165.5 -23t114 -66.5t69 -104.5t29.5 -138q1 -25 1 -52q0 -54 -5 -114l-73 -690q-12 -117 -42.5 -206.5t-85.5 -159.5t-143.5 -106.5t-207.5 -36.5q-97 0 -168 24t-114 69t-67.5 108 t-27.5 141q-1 21 -1 44zM266 363q0 -26 2 -51q6 -64 29 -110t74.5 -71.5t131.5 -25.5t136.5 24.5t90.5 73.5t51.5 109t26.5 144l79 750q6 49 6 93q0 26 -2 50q-6 64 -29 109t-74.5 69.5t-131.5 24.5t-136.5 -23.5t-90.5 -71.5t-51.5 -107.5t-26.5 -143.5l-79 -750 q-6 -49 -6 -93zM497 2198h151l72 -400h-77z" />
<glyph unicode="&#xd3;" horiz-adv-x="1074" d="M112 365q0 59 6 125l72 688q12 117 43 205t86.5 155.5t143 102.5t205.5 35q95 0 165.5 -23t114 -66.5t69 -104.5t29.5 -138q1 -25 1 -52q0 -54 -5 -114l-73 -690q-12 -117 -42.5 -206.5t-85.5 -159.5t-143.5 -106.5t-207.5 -36.5q-97 0 -168 24t-114 69t-67.5 108 t-27.5 141q-1 21 -1 44zM266 363q0 -26 2 -51q6 -64 29 -110t74.5 -71.5t131.5 -25.5t136.5 24.5t90.5 73.5t51.5 109t26.5 144l79 750q6 49 6 93q0 26 -2 50q-6 64 -29 109t-74.5 69.5t-131.5 24.5t-136.5 -23.5t-90.5 -71.5t-51.5 -107.5t-26.5 -143.5l-79 -750 q-6 -49 -6 -93zM642 1798l170 400h150l-242 -400h-78z" />
<glyph unicode="&#xd4;" horiz-adv-x="1074" d="M112 365q0 59 6 125l72 688q12 117 43 205t86.5 155.5t143 102.5t205.5 35q95 0 165.5 -23t114 -66.5t69 -104.5t29.5 -138q1 -25 1 -52q0 -54 -5 -114l-73 -690q-12 -117 -42.5 -206.5t-85.5 -159.5t-143.5 -106.5t-207.5 -36.5q-97 0 -168 24t-114 69t-67.5 108 t-27.5 141q-1 21 -1 44zM266 363q0 -26 2 -51q6 -64 29 -110t74.5 -71.5t131.5 -25.5t136.5 24.5t90.5 73.5t51.5 109t26.5 144l79 750q6 49 6 93q0 26 -2 50q-6 64 -29 109t-74.5 69.5t-131.5 24.5t-136.5 -23.5t-90.5 -71.5t-51.5 -107.5t-26.5 -143.5l-79 -750 q-6 -49 -6 -93zM422 1798l215 363h168l136 -363h-109l-119 289l-180 -289h-111z" />
<glyph unicode="&#xd5;" horiz-adv-x="1074" d="M112 365q0 59 6 125l72 688q12 117 43 205t86.5 155.5t143 102.5t205.5 35q95 0 165.5 -23t114 -66.5t69 -104.5t29.5 -138q1 -25 1 -52q0 -54 -5 -114l-73 -690q-12 -117 -42.5 -206.5t-85.5 -159.5t-143.5 -106.5t-207.5 -36.5q-97 0 -168 24t-114 69t-67.5 108 t-27.5 141q-1 21 -1 44zM266 363q0 -26 2 -51q6 -64 29 -110t74.5 -71.5t131.5 -25.5t136.5 24.5t90.5 73.5t51.5 109t26.5 144l79 750q6 49 6 93q0 26 -2 50q-6 64 -29 109t-74.5 69.5t-131.5 24.5t-136.5 -23.5t-90.5 -71.5t-51.5 -107.5t-26.5 -143.5l-79 -750 q-6 -49 -6 -93zM416 1814q2 23 8.5 46.5t20.5 50t33 46t50 29.5q23 8 50 8q10 0 20 -1q33 -3 73 -25.5t75 -45t54 -24.5q33 -4 51.5 17t24.5 71h91q-4 -34 -13 -63.5t-28 -61t-55 -49.5q-29 -14 -67 -14q-8 0 -17 1q-44 2 -112.5 48t-90.5 48q-30 5 -50 -15.5t-24 -65.5h-94 z" />
<glyph unicode="&#xd6;" horiz-adv-x="1074" d="M112 365q0 59 6 125l72 688q12 117 43 205t86.5 155.5t143 102.5t205.5 35q95 0 165.5 -23t114 -66.5t69 -104.5t29.5 -138q1 -25 1 -52q0 -54 -5 -114l-73 -690q-12 -117 -42.5 -206.5t-85.5 -159.5t-143.5 -106.5t-207.5 -36.5q-97 0 -168 24t-114 69t-67.5 108 t-27.5 141q-1 21 -1 44zM266 363q0 -26 2 -51q6 -64 29 -110t74.5 -71.5t131.5 -25.5t136.5 24.5t90.5 73.5t51.5 109t26.5 144l79 750q6 49 6 93q0 26 -2 50q-6 64 -29 109t-74.5 69.5t-131.5 24.5t-136.5 -23.5t-90.5 -71.5t-51.5 -107.5t-26.5 -143.5l-79 -750 q-6 -49 -6 -93zM436 1798l19 181h153l-19 -181h-153zM772 1798l19 181h154l-19 -181h-154z" />
<glyph unicode="&#xd7;" horiz-adv-x="724" d="M101 601l223 202l-180 201l85 77l180 -201l223 201l69 -77l-222 -201l180 -202l-86 -77l-180 201l-222 -201z" />
<glyph unicode="&#xd8;" horiz-adv-x="1084" d="M112 376q0 54 6 114l72 688q12 117 43 205t86.5 155.5t143 102.5t205.5 35q49 0 91.5 -6t78.5 -19l66 172l62 -16l-70 -182q152 -88 152 -341q0 -50 -6 -106l-73 -690q-12 -117 -42.5 -206.5t-85.5 -159.5t-143.5 -106.5t-207.5 -36.5q-129 0 -213 43l-77 -200l-60 19 l84 217q-112 95 -112 318zM267 360q0 -85 20 -137l503 1303q-52 26 -134 26q-80 0 -136.5 -23.5t-90.5 -71.5t-51.5 -107.5t-26.5 -143.5l-79 -750q-5 -52 -5 -96zM330 159q14 -13 31.5 -23t38.5 -17t47 -10.5t56 -3.5q80 0 136.5 24.5t90.5 73.5t51.5 109t26.5 144l79 750 q6 58 6 106q0 4 -1 8q0 51 -12.5 94t-37.5 72z" />
<glyph unicode="&#xd9;" horiz-adv-x="1100" d="M125 336q0 55 5 117l126 1205h151l-127 -1210q-7 -43 -7 -83q0 -27 3 -53q8 -63 31 -109t76 -72t134 -26q78 0 135 25.5t92 74t54 107.5t27 136l127 1210h150l-126 -1205q-11 -109 -40.5 -191.5t-83 -148.5t-141.5 -100t-208 -34q-99 0 -171.5 22.5t-114.5 64.5 t-65.5 100.5t-25.5 130.5q-1 19 -1 39zM509 2198h151l72 -400h-77z" />
<glyph unicode="&#xda;" horiz-adv-x="1100" d="M125 336q0 55 5 117l126 1205h151l-127 -1210q-7 -43 -7 -83q0 -27 3 -53q8 -63 31 -109t76 -72t134 -26q78 0 135 25.5t92 74t54 107.5t27 136l127 1210h150l-126 -1205q-11 -109 -40.5 -191.5t-83 -148.5t-141.5 -100t-208 -34q-99 0 -171.5 22.5t-114.5 64.5 t-65.5 100.5t-25.5 130.5q-1 19 -1 39zM654 1798l170 400h150l-242 -400h-78z" />
<glyph unicode="&#xdb;" horiz-adv-x="1100" d="M125 336q0 55 5 117l126 1205h151l-127 -1210q-7 -43 -7 -83q0 -27 3 -53q8 -63 31 -109t76 -72t134 -26q78 0 135 25.5t92 74t54 107.5t27 136l127 1210h150l-126 -1205q-11 -109 -40.5 -191.5t-83 -148.5t-141.5 -100t-208 -34q-99 0 -171.5 22.5t-114.5 64.5 t-65.5 100.5t-25.5 130.5q-1 19 -1 39zM434 1798l215 363h168l136 -363h-109l-119 289l-180 -289h-111z" />
<glyph unicode="&#xdc;" horiz-adv-x="1100" d="M125 336q0 55 5 117l126 1205h151l-127 -1210q-7 -43 -7 -83q0 -27 3 -53q8 -63 31 -109t76 -72t134 -26q78 0 135 25.5t92 74t54 107.5t27 136l127 1210h150l-126 -1205q-11 -109 -40.5 -191.5t-83 -148.5t-141.5 -100t-208 -34q-99 0 -171.5 22.5t-114.5 64.5 t-65.5 100.5t-25.5 130.5q-1 19 -1 39zM448 1798l19 181h153l-19 -181h-153zM784 1798l19 181h154l-19 -181h-154z" />
<glyph unicode="&#xdd;" horiz-adv-x="961" d="M164 1658h153l201 -921l384 921h153l-481 -1107l-58 -551h-152l57 551zM584 1798l170 400h150l-242 -400h-78z" />
<glyph unicode="&#xde;" horiz-adv-x="1033" d="M99 0l174 1658h157l-22 -214h284q104 0 177.5 -35.5t112 -99.5t51.5 -146q7 -44 7 -94q0 -42 -5 -88q-10 -100 -39.5 -182.5t-83 -152t-140.5 -108t-201 -38.5h-262l-53 -500h-157zM323 630h230q150 0 228 81t98 268q4 41 4 77q0 118 -45 178q-60 78 -197 78h-247z" />
<glyph unicode="&#xdf;" horiz-adv-x="974" d="M72 0l132 1251q24 233 119.5 336.5t268.5 103.5q176 0 260 -105q68 -83 68 -229q0 -36 -4 -76q-31 -290 -239 -369q70 -17 120.5 -57.5t76.5 -98t34 -125.5q5 -35 5 -72q0 -36 -4 -73q-53 -507 -577 -507l14 126q66 0 121.5 11t96 29.5t72 46.5t53 59.5t36.5 71t23 77 t13 82.5q2 35 2 68q0 21 -1 42q-2 52 -20.5 97.5t-47.5 78.5t-78.5 52t-114.5 19l17 125q35 0 66 9t54.5 25t43.5 39t34.5 49.5t25 59t17.5 65.5t11 70q4 38 4 71q0 91 -30 144q-41 74 -152 74q-73 0 -119 -27.5t-76 -97.5t-43 -191l-132 -1254h-150z" />
<glyph unicode="&#xe0;" horiz-adv-x="813" d="M59 212q0 17 2 35q7 59 22 105.5t46.5 87.5t67.5 72.5t100 67t127.5 65.5t164.5 73l9 85q7 67 7 117q0 71 -15 108q-24 61 -109 61q-165 0 -186 -203l-5 -43l-147 5q1 8 5 36q24 168 112 243t241 75q156 0 213 -93q40 -67 40 -192q0 -49 -6 -106l-60 -576 q-14 -124 -14 -213v-22h-133q-4 121 -4 164q-36 -78 -106 -130.5t-159 -52.5q-104 0 -163 77q-50 64 -50 154zM213 248q0 -62 27 -96q35 -42 94 -42q61 0 115 41.5t90 98.5l39 369q-181 -91 -234 -127q-90 -62 -116 -144q-9 -30 -13 -66q-2 -18 -2 -34zM309 1724h151 l72 -400h-77z" />
<glyph unicode="&#xe1;" horiz-adv-x="813" d="M59 212q0 17 2 35q7 59 22 105.5t46.5 87.5t67.5 72.5t100 67t127.5 65.5t164.5 73l9 85q7 67 7 117q0 71 -15 108q-24 61 -109 61q-165 0 -186 -203l-5 -43l-147 5q1 8 5 36q24 168 112 243t241 75q156 0 213 -93q40 -67 40 -192q0 -49 -6 -106l-60 -576 q-14 -124 -14 -213v-22h-133q-4 121 -4 164q-36 -78 -106 -130.5t-159 -52.5q-104 0 -163 77q-50 64 -50 154zM213 248q0 -62 27 -96q35 -42 94 -42q61 0 115 41.5t90 98.5l39 369q-181 -91 -234 -127q-90 -62 -116 -144q-9 -30 -13 -66q-2 -18 -2 -34zM455 1324l170 400 h150l-242 -400h-78z" />
<glyph unicode="&#xe2;" horiz-adv-x="813" d="M59 212q0 17 2 35q7 59 22 105.5t46.5 87.5t67.5 72.5t100 67t127.5 65.5t164.5 73l9 85q7 67 7 117q0 71 -15 108q-24 61 -109 61q-165 0 -186 -203l-5 -43l-147 5q1 8 5 36q24 168 112 243t241 75q156 0 213 -93q40 -67 40 -192q0 -49 -6 -106l-60 -576 q-14 -124 -14 -213v-22h-133q-4 121 -4 164q-36 -78 -106 -130.5t-159 -52.5q-104 0 -163 77q-50 64 -50 154zM213 248q0 -62 27 -96q35 -42 94 -42q61 0 115 41.5t90 98.5l39 369q-181 -91 -234 -127q-90 -62 -116 -144q-9 -30 -13 -66q-2 -18 -2 -34zM234 1324l215 363 h168l136 -363h-109l-119 289l-180 -289h-111z" />
<glyph unicode="&#xe3;" horiz-adv-x="813" d="M59 212q0 17 2 35q7 59 22 105.5t46.5 87.5t67.5 72.5t100 67t127.5 65.5t164.5 73l9 85q7 67 7 117q0 71 -15 108q-24 61 -109 61q-165 0 -186 -203l-5 -43l-147 5q1 8 5 36q24 168 112 243t241 75q156 0 213 -93q40 -67 40 -192q0 -49 -6 -106l-60 -576 q-14 -124 -14 -213v-22h-133q-4 121 -4 164q-36 -78 -106 -130.5t-159 -52.5q-104 0 -163 77q-50 64 -50 154zM213 248q0 -62 27 -96q35 -42 94 -42q61 0 115 41.5t90 98.5l39 369q-181 -91 -234 -127q-90 -62 -116 -144q-9 -30 -13 -66q-2 -18 -2 -34zM229 1340 q2 23 8.5 46.5t20.5 50t33 46t50 29.5q23 8 50 8q10 0 20 -1q33 -3 73 -25.5t75 -45t54 -24.5q33 -4 51.5 17t24.5 71h91q-4 -34 -13 -63.5t-28 -61t-55 -49.5q-29 -14 -67 -14q-8 0 -17 1q-44 2 -112.5 48t-90.5 48q-30 5 -50 -15.5t-24 -65.5h-94z" />
<glyph unicode="&#xe4;" horiz-adv-x="813" d="M59 212q0 17 2 35q7 59 22 105.5t46.5 87.5t67.5 72.5t100 67t127.5 65.5t164.5 73l9 85q7 67 7 117q0 71 -15 108q-24 61 -109 61q-165 0 -186 -203l-5 -43l-147 5q1 8 5 36q24 168 112 243t241 75q156 0 213 -93q40 -67 40 -192q0 -49 -6 -106l-60 -576 q-14 -124 -14 -213v-22h-133q-4 121 -4 164q-36 -78 -106 -130.5t-159 -52.5q-104 0 -163 77q-50 64 -50 154zM213 248q0 -62 27 -96q35 -42 94 -42q61 0 115 41.5t90 98.5l39 369q-181 -91 -234 -127q-90 -62 -116 -144q-9 -30 -13 -66q-2 -18 -2 -34zM249 1324l19 181h153 l-19 -181h-153zM585 1324l19 181h154l-19 -181h-154z" />
<glyph unicode="&#xe5;" horiz-adv-x="813" d="M59 212q0 17 2 35q7 59 22 105.5t46.5 87.5t67.5 72.5t100 67t127.5 65.5t164.5 73l9 85q7 67 7 117q0 71 -15 108q-24 61 -109 61q-165 0 -186 -203l-5 -43l-147 5q1 8 5 36q24 168 112 243t241 75q156 0 213 -93q40 -67 40 -192q0 -49 -6 -106l-60 -576 q-14 -124 -14 -213v-22h-133q-4 121 -4 164q-36 -78 -106 -130.5t-159 -52.5q-104 0 -163 77q-50 64 -50 154zM213 248q0 -62 27 -96q35 -42 94 -42q61 0 115 41.5t90 98.5l39 369q-181 -91 -234 -127q-90 -62 -116 -144q-9 -30 -13 -66q-2 -18 -2 -34zM317 1490q0 14 2 29 q9 93 70.5 143.5t144.5 50.5q84 0 135 -51q43 -43 43 -114q0 -14 -2 -29q-9 -92 -71 -143.5t-145 -51.5t-134 51q-43 43 -43 115zM402 1500q0 -42 24 -66q28 -29 77 -29t83 29t40 85q1 10 1 19q0 43 -23 67q-29 28 -78 28t-83 -29t-40 -85q-1 -10 -1 -19z" />
<glyph unicode="&#xe6;" horiz-adv-x="1274" d="M59 210q0 18 2 37q7 67 27 118t59.5 96.5t104 82t157.5 66.5l177 55l15 138q5 55 5 99q0 79 -18 120q-27 64 -109 64q-79 0 -129.5 -52t-62.5 -165l-146 2q18 161 109.5 246t242.5 85q89 0 144 -45.5t62 -130.5q34 89 105 132.5t159 43.5q142 0 209 -83q55 -69 55 -175 q0 -22 -2 -46q-5 -50 -28.5 -89t-65 -66.5t-88 -46t-109.5 -35.5l-204 -60l-13 -119q-9 -89 -9 -159q0 -24 1 -45q4 -85 37 -131t99 -46q35 0 63 11t52.5 36t41 72t24.5 115l8 70h149l-7 -69q-9 -83 -32 -146t-63.5 -111t-103 -73t-145.5 -25q-104 0 -168.5 60.5 t-67.5 180.5q-50 -123 -139 -184q-82 -57 -172 -57h-15q-105 4 -163 79q-48 62 -48 150zM211 239q0 -26 5 -47q9 -34 27 -54t40.5 -29.5t49.5 -9.5q37 0 72 18t67.5 56.5t56 107t33.5 159.5l14 132q-41 -12 -134 -49q-53 -21 -91.5 -42.5t-63.5 -43t-40.5 -48.5t-23 -54.5 t-10.5 -63.5q-2 -17 -2 -32zM739 691l179 55q30 9 52.5 17.5t41 19t31.5 22.5t22.5 28t14.5 34.5t8 42.5q1 13 1 25q0 21 -3 39q-5 30 -20 54.5t-44.5 38.5t-71.5 14q-90 0 -137 -65t-63 -219z" />
<glyph unicode="&#xe7;" horiz-adv-x="796" d="M84 309q0 66 10 140l30 276q13 129 36 214.5t65 146.5t106.5 88.5t158.5 27.5q92 0 150.5 -27.5t83.5 -77t32 -119.5q3 -27 3 -56q0 -47 -7 -99l-6 -56h-138l6 56q5 51 5 91q0 81 -20 119q-30 57 -119 57q-103 0 -143.5 -72.5t-60.5 -267.5l-35 -332q-8 -74 -8 -129 q0 -82 17 -124q28 -71 126 -71q52 0 86 16.5t55 55.5t31.5 87t18.5 127l7 65h138l-6 -58q-8 -78 -20.5 -135t-37.5 -110.5t-61 -87t-93 -53.5t-132 -20q-100 0 -162 35.5t-86 98t-29 147.5q-1 23 -1 47zM228 -409l8 77q40 -5 73 -5q123 0 135 72q2 10 2 19q0 37 -30 60 q-38 28 -111 42l15 144h79l-11 -104q82 -12 130 -58q41 -39 41 -91q0 -8 -1 -16q-10 -91 -100 -127q-53 -23 -126 -23q-48 0 -104 10z" />
<glyph unicode="&#xe8;" horiz-adv-x="809" d="M86 307q0 63 8 138l31 299q18 173 64.5 274.5t119.5 142.5t186 41q123 0 185 -52.5t76 -160.5q5 -46 5 -103q0 -77 -10 -172l-13 -107h-477l-19 -177q-8 -75 -8 -132q0 -83 16 -128q28 -76 126 -76q78 0 125.5 49.5t60.5 179.5l9 82h147l-8 -66q-18 -172 -99.5 -265 t-245.5 -93q-170 0 -234 105q-45 74 -45 221zM270 693h331l10 98q8 80 8 140q0 10 -1 19q-1 67 -34 103.5t-102 36.5q-64 0 -102.5 -27t-63 -95.5t-38.5 -194.5zM316 1724h151l72 -400h-77z" />
<glyph unicode="&#xe9;" horiz-adv-x="809" d="M86 307q0 63 8 138l31 299q18 173 64.5 274.5t119.5 142.5t186 41q123 0 185 -52.5t76 -160.5q5 -46 5 -103q0 -77 -10 -172l-13 -107h-477l-19 -177q-8 -75 -8 -132q0 -83 16 -128q28 -76 126 -76q78 0 125.5 49.5t60.5 179.5l9 82h147l-8 -66q-18 -172 -99.5 -265 t-245.5 -93q-170 0 -234 105q-45 74 -45 221zM270 693h331l10 98q8 80 8 140q0 10 -1 19q-1 67 -34 103.5t-102 36.5q-64 0 -102.5 -27t-63 -95.5t-38.5 -194.5zM462 1324l170 400h150l-242 -400h-78z" />
<glyph unicode="&#xea;" horiz-adv-x="809" d="M86 307q0 63 8 138l31 299q18 173 64.5 274.5t119.5 142.5t186 41q123 0 185 -52.5t76 -160.5q5 -46 5 -103q0 -77 -10 -172l-13 -107h-477l-19 -177q-8 -75 -8 -132q0 -83 16 -128q28 -76 126 -76q78 0 125.5 49.5t60.5 179.5l9 82h147l-8 -66q-18 -172 -99.5 -265 t-245.5 -93q-170 0 -234 105q-45 74 -45 221zM241 1324l215 363h168l136 -363h-109l-119 289l-180 -289h-111zM270 693h331l10 98q8 80 8 140q0 10 -1 19q-1 67 -34 103.5t-102 36.5q-64 0 -102.5 -27t-63 -95.5t-38.5 -194.5z" />
<glyph unicode="&#xeb;" horiz-adv-x="809" d="M86 307q0 63 8 138l31 299q18 173 64.5 274.5t119.5 142.5t186 41q123 0 185 -52.5t76 -160.5q5 -46 5 -103q0 -77 -10 -172l-13 -107h-477l-19 -177q-8 -75 -8 -132q0 -83 16 -128q28 -76 126 -76q78 0 125.5 49.5t60.5 179.5l9 82h147l-8 -66q-18 -172 -99.5 -265 t-245.5 -93q-170 0 -234 105q-45 74 -45 221zM256 1324l19 181h153l-19 -181h-153zM270 693h331l10 98q8 80 8 140q0 10 -1 19q-1 67 -34 103.5t-102 36.5q-64 0 -102.5 -27t-63 -95.5t-38.5 -194.5zM592 1324l19 181h154l-19 -181h-154z" />
<glyph unicode="&#xec;" horiz-adv-x="405" d="M85 0l124 1184h150l-124 -1184h-150zM113 1724h151l72 -400h-77z" />
<glyph unicode="&#xed;" horiz-adv-x="405" d="M85 0l124 1184h150l-124 -1184h-150zM259 1324l170 400h150l-242 -400h-78z" />
<glyph unicode="&#xee;" horiz-adv-x="405" d="M38 1324l215 363h168l136 -363h-109l-119 289l-180 -289h-111zM85 0l124 1184h150l-124 -1184h-150z" />
<glyph unicode="&#xef;" horiz-adv-x="405" d="M53 1324l19 181h153l-19 -181h-153zM85 0l124 1184h150l-124 -1184h-150zM389 1324l19 181h154l-19 -181h-154z" />
<glyph unicode="&#xf0;" horiz-adv-x="912" d="M105 329q0 60 9 129l16 153q28 261 117 395t254 134q103 0 194 -63q-4 196 -43 278l-229 -64l9 85l187 49q-35 76 -114.5 115t-219.5 48l18 100q174 -5 281 -57t158 -167l199 54l-9 -85l-159 -41q20 -57 35.5 -152.5t23.5 -235.5q3 -45 3 -91q0 -97 -12 -198l-23 -215 q-14 -129 -40.5 -222t-72.5 -162t-117 -103t-168 -34t-161 33.5t-94 95.5t-39 150q-3 34 -3 71zM259 345q0 -19 1 -37q3 -99 42 -153.5t118 -54.5q50 0 86 17t60 47.5t41.5 86.5t28 119t20.5 161q5 54 18.5 237t12.5 192q-4 2 -24 14t-30.5 16.5t-29.5 12.5t-38.5 11.5 t-40.5 3.5q-106 0 -166 -109t-87 -361q-12 -115 -12 -203z" />
<glyph unicode="&#xf1;" horiz-adv-x="838" d="M69 0l124 1184h150l-12 -123q144 141 299 141q89 0 129 -66q30 -49 30 -130q0 -26 -3 -56l-100 -950h-150l96 918q3 27 3 49q0 52 -17 79q-23 38 -81 38q-99 0 -215 -109l-103 -975h-150zM252 1340q2 23 8.5 46.5t20.5 50t33 46t50 29.5q23 8 50 8q10 0 20 -1 q33 -3 73 -25.5t75 -45t54 -24.5q33 -4 51.5 17t24.5 71h91q-4 -34 -13 -63.5t-28 -61t-55 -49.5q-29 -14 -67 -14q-8 0 -17 1q-44 2 -112.5 48t-90.5 48q-30 5 -50 -15.5t-24 -65.5h-94z" />
<glyph unicode="&#xf2;" d="M85 306q0 56 7 122l35 328q12 111 35 190t64.5 138.5t106.5 88.5t156 29q176 0 235 -110q41 -77 41 -214q0 -56 -7 -122l-34 -328q-12 -112 -35.5 -191.5t-65 -138.5t-106.5 -88t-156 -29q-176 0 -235 110q-41 78 -41 215zM232 250.5q0 -72.5 33.5 -114.5t107.5 -42 q38 0 67 10t49 32.5t33.5 48t23 66.5t15 77.5t11.5 91.5l37 344q6 56 8 92q1 23 1 50v27q-1 42 -9.5 67t-24 47.5t-42.5 32.5t-65 10q-45 0 -78 -16.5t-53 -42t-34 -71t-20.5 -88t-13.5 -108.5l-37 -344q-9 -97 -9 -169.5zM318 1724h151l72 -400h-77z" />
<glyph unicode="&#xf3;" d="M85 306q0 56 7 122l35 328q12 111 35 190t64.5 138.5t106.5 88.5t156 29q176 0 235 -110q41 -77 41 -214q0 -56 -7 -122l-34 -328q-12 -112 -35.5 -191.5t-65 -138.5t-106.5 -88t-156 -29q-176 0 -235 110q-41 78 -41 215zM232 250.5q0 -72.5 33.5 -114.5t107.5 -42 q38 0 67 10t49 32.5t33.5 48t23 66.5t15 77.5t11.5 91.5l37 344q6 56 8 92q1 23 1 50v27q-1 42 -9.5 67t-24 47.5t-42.5 32.5t-65 10q-45 0 -78 -16.5t-53 -42t-34 -71t-20.5 -88t-13.5 -108.5l-37 -344q-9 -97 -9 -169.5zM463 1324l170 400h150l-242 -400h-78z" />
<glyph unicode="&#xf4;" d="M85 306q0 56 7 122l35 328q12 111 35 190t64.5 138.5t106.5 88.5t156 29q176 0 235 -110q41 -77 41 -214q0 -56 -7 -122l-34 -328q-12 -112 -35.5 -191.5t-65 -138.5t-106.5 -88t-156 -29q-176 0 -235 110q-41 78 -41 215zM232 250.5q0 -72.5 33.5 -114.5t107.5 -42 q38 0 67 10t49 32.5t33.5 48t23 66.5t15 77.5t11.5 91.5l37 344q6 56 8 92q1 23 1 50v27q-1 42 -9.5 67t-24 47.5t-42.5 32.5t-65 10q-45 0 -78 -16.5t-53 -42t-34 -71t-20.5 -88t-13.5 -108.5l-37 -344q-9 -97 -9 -169.5zM243 1324l215 363h168l136 -363h-109l-119 289 l-180 -289h-111z" />
<glyph unicode="&#xf5;" d="M85 306q0 56 7 122l35 328q12 111 35 190t64.5 138.5t106.5 88.5t156 29q176 0 235 -110q41 -77 41 -214q0 -56 -7 -122l-34 -328q-12 -112 -35.5 -191.5t-65 -138.5t-106.5 -88t-156 -29q-176 0 -235 110q-41 78 -41 215zM232 250.5q0 -72.5 33.5 -114.5t107.5 -42 q38 0 67 10t49 32.5t33.5 48t23 66.5t15 77.5t11.5 91.5l37 344q6 56 8 92q1 23 1 50v27q-1 42 -9.5 67t-24 47.5t-42.5 32.5t-65 10q-45 0 -78 -16.5t-53 -42t-34 -71t-20.5 -88t-13.5 -108.5l-37 -344q-9 -97 -9 -169.5zM237 1340q2 23 8.5 46.5t20.5 50t33 46t50 29.5 q23 8 50 8q10 0 20 -1q33 -3 73 -25.5t75 -45t54 -24.5q33 -4 51.5 17t24.5 71h91q-4 -34 -13 -63.5t-28 -61t-55 -49.5q-29 -14 -67 -14q-8 0 -17 1q-44 2 -112.5 48t-90.5 48q-30 5 -50 -15.5t-24 -65.5h-94z" />
<glyph unicode="&#xf6;" d="M85 306q0 56 7 122l35 328q12 111 35 190t64.5 138.5t106.5 88.5t156 29q176 0 235 -110q41 -77 41 -214q0 -56 -7 -122l-34 -328q-12 -112 -35.5 -191.5t-65 -138.5t-106.5 -88t-156 -29q-176 0 -235 110q-41 78 -41 215zM232 250.5q0 -72.5 33.5 -114.5t107.5 -42 q38 0 67 10t49 32.5t33.5 48t23 66.5t15 77.5t11.5 91.5l37 344q6 56 8 92q1 23 1 50v27q-1 42 -9.5 67t-24 47.5t-42.5 32.5t-65 10q-45 0 -78 -16.5t-53 -42t-34 -71t-20.5 -88t-13.5 -108.5l-37 -344q-9 -97 -9 -169.5zM257 1324l19 181h153l-19 -181h-153zM593 1324 l19 181h154l-19 -181h-154z" />
<glyph unicode="&#xf7;" horiz-adv-x="690" d="M91 794l12 114h585l-12 -114h-585zM278 402l19 185h129l-19 -185h-129zM350 1091l19 185h129l-19 -185h-129z" />
<glyph unicode="&#xf8;" d="M39 -139l99 212q-53 74 -53 229q0 58 7 126l35 328q12 111 35 190t64.5 138.5t106.5 88.5t156 29q100 0 162 -36l74 158l54 -19l-83 -175q49 -53 64 -150q6 -45 6 -98q0 -59 -8 -126l-34 -328q-12 -112 -35.5 -191.5t-65 -138.5t-106.5 -88t-156 -29q-119 0 -184 51 l-90 -189zM231 271l360 768q-33 51 -114 51q-45 0 -78 -16.5t-53 -42t-34 -71t-20.5 -88t-13.5 -108.5l-37 -344q-10 -97 -10 -149zM244 175q28 -81 129 -81q38 0 67 10t49 32.5t33.5 48t23 66.5t15 77.5t11.5 91.5l37 344q9 93 9 151q0 26 -2 45z" />
<glyph unicode="&#xf9;" horiz-adv-x="843" d="M82 179q0 26 3 56l99 949h151l-96 -918q-3 -27 -3 -49q0 -52 16 -79q24 -38 82 -38q102 0 221 117l102 967h150l-124 -1184h-150l14 131q-147 -149 -306 -149q-89 0 -129 66q-30 50 -30 131zM325 1724h151l72 -400h-77z" />
<glyph unicode="&#xfa;" horiz-adv-x="843" d="M82 179q0 26 3 56l99 949h151l-96 -918q-3 -27 -3 -49q0 -52 16 -79q24 -38 82 -38q102 0 221 117l102 967h150l-124 -1184h-150l14 131q-147 -149 -306 -149q-89 0 -129 66q-30 50 -30 131zM470 1324l170 400h150l-242 -400h-78z" />
<glyph unicode="&#xfb;" horiz-adv-x="843" d="M82 179q0 26 3 56l99 949h151l-96 -918q-3 -27 -3 -49q0 -52 16 -79q24 -38 82 -38q102 0 221 117l102 967h150l-124 -1184h-150l14 131q-147 -149 -306 -149q-89 0 -129 66q-30 50 -30 131zM250 1324l215 363h168l136 -363h-109l-119 289l-180 -289h-111z" />
<glyph unicode="&#xfc;" horiz-adv-x="843" d="M82 179q0 26 3 56l99 949h151l-96 -918q-3 -27 -3 -49q0 -52 16 -79q24 -38 82 -38q102 0 221 117l102 967h150l-124 -1184h-150l14 131q-147 -149 -306 -149q-89 0 -129 66q-30 50 -30 131zM264 1324l19 181h153l-19 -181h-153zM600 1324l19 181h154l-19 -181h-154z" />
<glyph unicode="&#xfd;" horiz-adv-x="780" d="M6 -295l13 117q108 0 163.5 17t73.5 48q16 29 16 84v6q-2 35 -18 164l-135 1043h150l100 -1007l304 1007h151l-420 -1269q-38 -113 -122.5 -161.5t-236.5 -48.5h-39zM446 1324l170 400h150l-242 -400h-78z" />
<glyph unicode="&#xfe;" horiz-adv-x="853" d="M30 -390l215 2048h150l-59 -572q104 116 238 116q56 0 97.5 -18t66.5 -52t40 -76t20 -98q3 -43 3 -83q0 -14 -1 -27q-1 -53 -8 -118l-26 -250q-10 -94 -25.5 -168t-42.5 -137.5t-63.5 -105t-88 -65t-116.5 -23.5q-115 0 -199 114l-51 -485h-150zM241 187q72 -87 177 -87 q95 0 136 88.5t62 289.5l26 252q10 96 10 167v28q-3 79 -34.5 119t-98.5 40q-91 0 -193 -91z" />
<glyph unicode="&#xff;" horiz-adv-x="780" d="M6 -295l13 117q108 0 163.5 17t73.5 48q16 29 16 84v6q-2 35 -18 164l-135 1043h150l100 -1007l304 1007h151l-420 -1269q-38 -113 -122.5 -161.5t-236.5 -48.5h-39zM240 1324l19 181h153l-19 -181h-153zM576 1324l19 181h154l-19 -181h-154z" />
<glyph unicode="&#x152;" horiz-adv-x="1319" d="M112 374q0 51 5 108l71 676q12 119 44.5 208.5t90.5 156.5t148 101t211 34h704l-13 -122h-403l-65 -614h333l-11 -116h-334l-72 -686h406l-13 -120h-697q-102 0 -177.5 22t-122 63t-73 100t-30.5 133q-2 27 -2 56zM269 385q0 -26 2 -51q6 -68 31.5 -115t82.5 -71.5 t148 -24.5h132l149 1416h-135q-75 0 -130 -18.5t-90.5 -49.5t-59 -84.5t-35.5 -109.5t-21 -138l-67 -647q-7 -58 -7 -107z" />
<glyph unicode="&#x153;" horiz-adv-x="1328" d="M99 300q0 58 8 126l35 332q24 225 105.5 334.5t258.5 109.5q188 0 225 -167q73 167 267 167q176 0 230 -111q37 -74 37 -215q0 -69 -9 -155l-13 -109h-482l-14 -130q-8 -81 -8 -144q0 -86 15 -138q26 -92 122 -96q29 -1 50.5 2.5t46 16t41.5 35.5t30.5 63.5t19.5 96.5 l9 87h150l-10 -85q-18 -170 -101 -256q-80 -83 -238 -83h-11q-188 5 -224 176q-70 -176 -262 -176q-91 0 -150 29.5t-88.5 86t-36.5 139.5q-3 30 -3 64zM248 291q0 -30 4 -61q4 -44 19 -69t44.5 -41t74.5 -16t78.5 16t53.5 41t34 70t21 87t14 108l35 332q9 92 9 161 q0 4 -1 8q0 72 -34 113t-107 41q-38 0 -67 -10t-49.5 -32t-34.5 -47t-23.5 -65.5t-15 -77t-10.5 -91.5l-35 -332q-7 -66 -9 -108q-1 -14 -1 -27zM770 693h333l6 58q5 51 7 87q2 26 2 54v24q-1 41 -9.5 68t-23.5 50.5t-41 35t-63 11.5q-94 0 -140.5 -77.5t-64.5 -245.5z" />
<glyph unicode="&#x178;" horiz-adv-x="961" d="M164 1658h153l201 -921l384 921h153l-481 -1107l-58 -551h-152l57 551zM378 1798l19 181h153l-19 -181h-153zM714 1798l19 181h154l-19 -181h-154z" />
<glyph unicode="&#x2c6;" horiz-adv-x="673" d="M164 1280l217 378h168l135 -378h-110l-117 304l-182 -304h-111z" />
<glyph unicode="&#x2dc;" horiz-adv-x="790" d="M238 1486q2 23 8.5 46.5t20.5 50t33 46t50 29.5q23 8 50 8q10 0 20 -1q33 -3 73 -25.5t75 -45t54 -24.5q33 -4 51.5 17t24.5 71h91q-4 -34 -13 -63.5t-28 -61t-55 -49.5q-29 -14 -67 -14q-8 0 -17 1q-44 2 -112.5 48t-90.5 48q-30 5 -50 -15.5t-24 -65.5h-94z" />
<glyph unicode="&#x2000;" horiz-adv-x="1099" />
<glyph unicode="&#x2001;" horiz-adv-x="2198" />
<glyph unicode="&#x2002;" horiz-adv-x="1099" />
<glyph unicode="&#x2003;" horiz-adv-x="2198" />
<glyph unicode="&#x2004;" horiz-adv-x="732" />
<glyph unicode="&#x2005;" horiz-adv-x="549" />
<glyph unicode="&#x2006;" horiz-adv-x="366" />
<glyph unicode="&#x2007;" horiz-adv-x="366" />
<glyph unicode="&#x2008;" horiz-adv-x="274" />
<glyph unicode="&#x2009;" horiz-adv-x="439" />
<glyph unicode="&#x200a;" horiz-adv-x="122" />
<glyph unicode="&#x2010;" horiz-adv-x="610" d="M106 609l12 118h437l-13 -118h-436z" />
<glyph unicode="&#x2011;" horiz-adv-x="610" d="M106 609l12 118h437l-13 -118h-436z" />
<glyph unicode="&#x2012;" horiz-adv-x="610" d="M106 609l12 118h437l-13 -118h-436z" />
<glyph unicode="&#x2013;" horiz-adv-x="964" d="M83 430l13 124h810l-12 -124h-811z" />
<glyph unicode="&#x2014;" horiz-adv-x="1697" d="M91 504l12 120h1543l-12 -120h-1543z" />
<glyph unicode="&#x2018;" horiz-adv-x="582" d="M192 1250l18 170q13 134 53.5 204.5t126.5 92.5l29 -53q-58 -22 -81.5 -68t-33.5 -145h82l-21 -201h-173z" />
<glyph unicode="&#x2019;" horiz-adv-x="356" d="M191 1244q58 22 81.5 68t33.5 145h-82l21 201h173l-17 -170q-15 -134 -55 -204.5t-126 -92.5z" />
<glyph unicode="&#x201a;" horiz-adv-x="572" d="M151 -190q58 23 81.5 69t33.5 145h-82l22 201h173l-19 -170q-13 -134 -53.5 -204.5t-126.5 -92.5z" />
<glyph unicode="&#x201c;" horiz-adv-x="775" d="M210 1250l18 170q13 134 53.5 204.5t126.5 92.5l29 -53q-58 -22 -81.5 -68t-33.5 -145h82l-21 -201h-173zM536 1250l18 170q13 134 53.5 204.5t126.5 92.5l29 -53q-58 -22 -81.5 -68t-33.5 -145h82l-21 -201h-173z" />
<glyph unicode="&#x201d;" horiz-adv-x="970" d="M351 1243q58 23 81.5 69t33.5 144h-82l21 202h173l-17 -171q-15 -134 -55 -204t-126 -92zM638 1243q58 23 81.5 69t33.5 144h-82l21 202h173l-17 -171q-15 -134 -55 -204t-126 -92z" />
<glyph unicode="&#x201e;" horiz-adv-x="809" d="M113 -190q58 23 81.5 69.5t33.5 144.5h-82l21 201h173l-18 -170q-13 -134 -53.5 -204.5t-126.5 -92.5zM440 -190q58 23 82 69t34 145h-82l21 201h173l-18 -170q-14 -134 -54.5 -204.5t-126.5 -92.5z" />
<glyph unicode="&#x2022;" horiz-adv-x="619" d="M162 770q0 13 2 28q9 84 63 136.5t141 52.5t130 -53q37 -43 37 -108q0 -14 -2 -28q-9 -84 -63.5 -137t-141.5 -53t-130 53q-36 44 -36 109z" />
<glyph unicode="&#x2026;" horiz-adv-x="1088" d="M65 0l24 225h159l-24 -225h-159zM429 0l24 225h159l-24 -225h-159zM793 0l24 225h159l-24 -225h-159z" />
<glyph unicode="&#x202f;" horiz-adv-x="439" />
<glyph unicode="&#x2039;" horiz-adv-x="668" d="M223 618l7 67l427 441l-20 -191l-285 -283l226 -285l-20 -191z" />
<glyph unicode="&#x203a;" horiz-adv-x="648" d="M132 236l20 190l285 284l-226 285l20 191l335 -442l-7 -67z" />
<glyph unicode="&#x205f;" horiz-adv-x="549" />
<glyph unicode="&#x20ac;" horiz-adv-x="997" d="M1 628l9 86h131l28 267h-131l10 87h131l9 90q10 96 29.5 171.5t56 142t88 110.5t127.5 69t173 25q109 0 183 -33t111.5 -94t49.5 -149q7 -42 7 -90q0 -50 -7 -105l-8 -77h-149l8 72q6 62 6 114q0 40 -3 73q-8 78 -58.5 121.5t-151.5 43.5q-66 0 -115 -18t-81 -48.5 t-54 -80t-33 -102t-19 -125.5l-11 -110h260l-10 -87h-260l-28 -267h260l-9 -86h-260l-16 -154q-6 -57 -6 -104q0 -115 34 -177q48 -88 196 -88q76 0 128 24.5t82.5 75.5t46.5 111t25 148l8 83h149l-8 -72q-12 -115 -39.5 -201t-78 -155t-133 -104.5t-195.5 -35.5 q-98 0 -170 26t-112.5 73.5t-63.5 112.5t-24 143v19q0 69 6 146l13 129h-131z" />
<glyph unicode="&#x2122;" horiz-adv-x="1445" d="M194 1558l10 100h471l-10 -100h-170l-84 -797h-119l84 797h-182zM684 761l94 897h118l152 -694l306 694h112l-94 -897h-98l69 657l-288 -657h-51l-153 648l-68 -648h-99z" />
<glyph unicode="&#x25fc;" horiz-adv-x="1185" d="M0 0v1185h1185v-1185h-1185z" />
<glyph unicode="&#xfb01;" horiz-adv-x="927" d="M104 1075l11 109h154l13 123q8 75 22.5 126t43 92.5t77 61.5t118.5 20q50 0 107 -12l-12 -113q-50 9 -81 9q-65 0 -89.5 -36t-34.5 -132l-15 -139h451l-124 -1184h-150l113 1075h-301l-113 -1075h-149l113 1075h-154zM747 1347l22 204h139l-21 -204h-140z" />
<glyph unicode="&#xfb02;" horiz-adv-x="964" d="M104 1075l11 109h154l13 123q4 39 8.5 65.5t15.5 63.5t26.5 62.5t43.5 53t64.5 44t90 27.5t120.5 11q128 0 307 -39l-168 -1595h-150l158 1510q-86 11 -141 11q-42 0 -74.5 -6t-54.5 -15t-39 -26t-26 -32t-16 -41t-10 -45t-6 -52l-13 -120h192l-11 -109h-192l-113 -1075 h-149l113 1075h-154z" />
<glyph unicode="&#xfb03;" horiz-adv-x="1438" d="M104 1075l11 109h154l13 123q6 60 14 100t25 81t42.5 65.5t67.5 39.5t99 15q53 0 120 -13l-12 -113q-69 11 -84 11q-64 0 -87.5 -38.5t-33.5 -131.5l-15 -139h333l13 123q6 60 14 100t25.5 81.5t43 65.5t67.5 39t99 15q54 0 119 -13l-12 -113q-69 11 -83 11 q-64 0 -87.5 -38.5t-33.5 -131.5l-15 -139h479l-124 -1184h-150l113 1075h-329l-113 -1075h-150l113 1075h-333l-113 -1075h-149l113 1075h-154zM1247 1347l22 204h150l-21 -204h-151z" />
<glyph unicode="&#xfb04;" horiz-adv-x="1589" d="M104 1075l11 109h154l13 123q6 60 14 100t25 81t42.5 65.5t67.5 39.5t99 15q53 0 120 -13l-12 -113q-69 11 -84 11q-64 0 -87.5 -38.5t-33.5 -131.5l-15 -139h192l-11 -109h-192l-113 -1075h-149l113 1075h-154zM589 1075l11 109h154l13 123q6 60 14 100t25 81t42.5 65.5 t67.5 39.5t99 15q53 0 120 -13l-12 -113q-69 11 -84 11q-64 0 -87.5 -38.5t-33.5 -131.5l-15 -139h192l-11 -109h-192l-113 -1075h-149l113 1075h-154zM1130 0l124 1184h150l-124 -1184h-150zM1272 1347l21 204h151l-22 -204h-150z" />
</font>
</defs>
</svg>
